<svg width="95" height="47" fill="none" xmlns="http://www.w3.org/2000/svg"><path d="M.128 8A8 8 0 018.154.026l47.6.158-.154 46.438L8 46.464a8 8 0 01-7.973-8.026L.127 8z" fill="#0046AD"/><path d="M31.688 26.782l-.007 1.875-13.106-.044.007-1.875-1.893-.007-.013 3.73 16.85.057.014-3.73-1.852-.006z" fill="#fff"/><path d="M31.483 26.784l-.006 1.875.202-.201-13.106-.045.2.202.007-1.874c0-.101-.1-.202-.2-.203l-1.873-.006c-.1 0-.201.1-.202.2l-.013 3.75c0 .101.1.203.2.203l16.851.057c.1 0 .202-.1.202-.2l.013-3.75c0-.101-.1-.203-.2-.203l-1.873-.006c-.261-.001-.263.402-.001.403l1.872.006-.2-.202-.014 3.75.202-.201c-5.616-.02-11.233-.038-16.85-.057l.2.202.014-3.75-.202.201 1.872.007-.2-.203-.007 1.875c0 .1.1.202.2.202l13.106.045c.101 0 .202-.1.202-.201l.007-1.875c0-.262-.402-.263-.403-.001z" fill="#fff"/><path d="M22.348 13.6l-.027 7.505-3.724-.012 6.52 5.67 6.582-5.63-3.744-.011.028-7.505-5.635-.017z" fill="#fff"/><path d="M22.16 13.6l-.03 7.505.202-.201-3.743-.011c-.16 0-.282.221-.142.343 2.186 1.902 4.351 3.785 6.537 5.668.08.08.2.081.281 0 2.18-1.87 4.381-3.74 6.582-5.61.141-.12.021-.342-.14-.343l-3.742-.01.2.202.03-7.506c0-.1-.1-.202-.2-.202l-5.614-.016c-.261-.001-.263.402-.001.403l5.613.017-.2-.203-.03 7.506c0 .1.1.202.2.202l3.743.01c-.04-.12-.1-.221-.14-.342-2.2 1.85-4.4 3.72-6.581 5.59h.282c-2.166-1.883-4.351-3.765-6.517-5.648-.04.12-.101.222-.142.343l3.742.01c.1 0 .202-.1.202-.2l.03-7.506c-.02-.242-.422-.243-.423-.001z" fill="#fff"/><path d="M48.977.246L86.49.37a8 8 0 017.973 8.027l-.1 30.314a8 8 0 01-8.027 7.973l-37.514-.124.154-46.314z" fill="#0046AD"/><path d="M48.977.246L86.49.37a8 8 0 017.973 8.027l-.1 30.314a8 8 0 01-8.027 7.973l-37.514-.124.154-46.314z" fill="#fff" fill-opacity=".2"/><path d="M71.857 28.878l8.702-7.181m-8.697 7.179l-8.651-7.234" stroke="#fff" stroke-width="2.242" stroke-miterlimit="10" stroke-linecap="square"/></svg>