<svg width="1433" height="121" fill="none" xmlns="http://www.w3.org/2000/svg"><path d="M120 0h1303c5.52 0 10 4.477 10 10v101c0 5.523-4.48 10-10 10H120V0z" fill="#DDE9FA"/><path d="M120 0h1303c5.52 0 10 4.477 10 10v101c0 5.523-4.48 10-10 10H120V0z" fill="#fff" fill-opacity=".2"/><path d="M178.163 35.075a6.66 6.66 0 00-.831-1.737 5.33 5.33 0 00-1.225-1.321 5.157 5.157 0 00-1.63-.842 6.56 6.56 0 00-1.993-.287c-1.228 0-2.336.316-3.323.948-.988.632-1.769 1.559-2.344 2.78-.568 1.215-.853 2.703-.853 4.464 0 1.769.288 3.264.863 4.485.576 1.222 1.364 2.149 2.365 2.78 1.002.633 2.142.949 3.42.949 1.186 0 2.22-.241 3.1-.724a5.04 5.04 0 002.056-2.046c.491-.888.736-1.932.736-3.132l.852.16h-6.243v-2.717h8.576v2.483c0 1.832-.391 3.423-1.172 4.772a7.982 7.982 0 01-3.217 3.111c-1.364.731-2.926 1.097-4.688 1.097-1.974 0-3.707-.454-5.199-1.363-1.484-.91-2.642-2.199-3.473-3.867-.831-1.677-1.246-3.665-1.246-5.966 0-1.74.241-3.303.724-4.688.483-1.385 1.162-2.56 2.035-3.526a8.887 8.887 0 013.1-2.227c1.193-.518 2.497-.777 3.91-.777 1.179 0 2.276.174 3.292.521a8.87 8.87 0 012.727 1.481c.803.64 1.467 1.4 1.992 2.28a8.353 8.353 0 011.066 2.909h-3.377zm14.502 15.255c-1.613 0-3.001-.344-4.166-1.033-1.158-.696-2.052-1.673-2.685-2.93-.625-1.264-.937-2.745-.937-4.442 0-1.676.312-3.154.937-4.432.633-1.279 1.513-2.276 2.642-2.994 1.137-.717 2.465-1.076 3.985-1.076.923 0 1.818.153 2.685.458a6.507 6.507 0 012.333 1.439c.689.653 1.232 1.502 1.63 2.546.397 1.037.596 2.297.596 3.782v1.129h-13.008v-2.386h9.887c0-.838-.171-1.58-.512-2.227a3.866 3.866 0 00-1.438-1.545c-.611-.376-1.328-.564-2.152-.564-.895 0-1.676.22-2.344.66a4.443 4.443 0 00-1.534 1.705 4.922 4.922 0 00-.532 2.269v1.864c0 1.094.191 2.024.575 2.791.391.767.934 1.353 1.63 1.758.696.398 1.509.597 2.44.597.603 0 1.154-.085 1.651-.256.497-.177.927-.44 1.289-.788a3.43 3.43 0 00.831-1.29l3.015.544a5.465 5.465 0 01-1.3 2.333c-.618.66-1.396 1.176-2.333 1.545-.93.362-1.992.543-3.185.543zm13.74-10.046V50h-3.186V33.636h3.058V36.3h.202a4.68 4.68 0 011.769-2.088c.81-.526 1.829-.789 3.057-.789 1.115 0 2.092.235 2.93.703.838.462 1.488 1.151 1.95 2.067.461.916.692 2.05.692 3.399V50h-3.185V39.975c0-1.186-.309-2.113-.927-2.78-.618-.675-1.467-1.013-2.546-1.013-.739 0-1.396.16-1.971.48-.568.32-1.019.788-1.353 1.406-.327.611-.49 1.35-.49 2.216zm20.87 10.036c-1.321 0-2.5-.338-3.537-1.013-1.03-.681-1.84-1.65-2.429-2.908-.582-1.264-.874-2.78-.874-4.549 0-1.768.295-3.281.885-4.538.596-1.257 1.413-2.22 2.45-2.887 1.037-.668 2.212-1.002 3.526-1.002 1.016 0 1.833.17 2.45.512.625.334 1.108.724 1.449 1.171.348.448.618.842.81 1.183h.192v-8.107h3.185V50h-3.111v-2.546h-.266a8.466 8.466 0 01-.831 1.193c-.355.447-.845.838-1.47 1.172-.625.334-1.435.5-2.429.5zm.703-2.717c.916 0 1.69-.242 2.322-.724.64-.49 1.123-1.169 1.449-2.035.334-.867.501-1.875.501-3.026 0-1.136-.163-2.13-.49-2.983-.327-.852-.806-1.516-1.438-1.992-.632-.476-1.414-.714-2.344-.714-.959 0-1.758.249-2.397.746-.639.497-1.122 1.175-1.449 2.035-.319.86-.479 1.829-.479 2.908 0 1.094.163 2.078.49 2.951.326.874.809 1.566 1.449 2.078.646.504 1.441.756 2.386.756zm19.003 2.727c-1.612 0-3.001-.344-4.165-1.033-1.158-.696-2.053-1.673-2.685-2.93-.625-1.264-.938-2.745-.938-4.442 0-1.676.313-3.154.938-4.432.632-1.279 1.513-2.276 2.642-2.994 1.136-.717 2.464-1.076 3.984-1.076a8.02 8.02 0 012.685.458 6.507 6.507 0 012.333 1.439c.689.653 1.232 1.502 1.63 2.546.398 1.037.597 2.297.597 3.782v1.129h-13.008v-2.386h9.886c0-.838-.17-1.58-.511-2.227a3.873 3.873 0 00-1.438-1.545c-.611-.376-1.329-.564-2.152-.564-.895 0-1.677.22-2.344.66a4.427 4.427 0 00-1.534 1.705 4.923 4.923 0 00-.533 2.269v1.864c0 1.094.192 2.024.575 2.791.391.767.934 1.353 1.63 1.758.696.398 1.51.597 2.44.597.604 0 1.154-.085 1.651-.256.497-.177.927-.44 1.289-.788.363-.348.64-.778.831-1.29l3.015.544a5.455 5.455 0 01-1.3 2.333c-.617.66-1.395 1.176-2.333 1.545-.93.362-1.992.543-3.185.543zm10.555-.33V33.636h3.079v2.6h.17a3.953 3.953 0 011.577-2.078c.76-.511 1.619-.767 2.578-.767a13.614 13.614 0 011.353.075v3.047a5.709 5.709 0 00-.682-.117 6.507 6.507 0 00-.98-.075c-.753 0-1.424.16-2.013.48a3.558 3.558 0 00-1.385 1.31c-.341.554-.512 1.186-.512 1.896V50h-3.185zm23.001 0l-4.816-16.364h3.292l3.207 12.017h.16l3.217-12.017h3.292l3.196 11.964h.16l3.185-11.964h3.292L293.917 50h-3.249l-3.324-11.815h-.245L283.775 50h-3.238zm25.97.362c-1.037 0-1.975-.192-2.813-.575a4.737 4.737 0 01-1.992-1.694c-.483-.739-.724-1.644-.724-2.717 0-.923.177-1.683.532-2.28a3.937 3.937 0 011.439-1.416 7.5 7.5 0 012.024-.789 20.149 20.149 0 012.28-.404l2.386-.278c.611-.078 1.055-.202 1.332-.372.277-.17.415-.448.415-.831v-.075c0-.93-.263-1.651-.788-2.162-.519-.512-1.293-.768-2.323-.768-1.072 0-1.917.238-2.535.714-.611.469-1.034.991-1.268 1.566l-2.993-.682c.355-.994.873-1.796 1.555-2.407a6.31 6.31 0 012.376-1.343 9.275 9.275 0 012.823-.426c.653 0 1.346.078 2.077.235a6.09 6.09 0 012.067.83c.646.406 1.175.984 1.587 1.737.412.746.618 1.715.618 2.908V50h-3.111v-2.237h-.127c-.206.412-.515.817-.927 1.214-.412.398-.941.728-1.588.991-.646.263-1.42.394-2.322.394zm.692-2.557c.881 0 1.634-.174 2.259-.522.632-.348 1.111-.802 1.438-1.363a3.535 3.535 0 00.501-1.822v-2.11c-.114.114-.334.22-.661.32a10.23 10.23 0 01-1.097.245c-.412.064-.813.125-1.204.181l-.98.128a7.902 7.902 0 00-1.694.394c-.504.185-.909.451-1.214.8-.299.34-.448.795-.448 1.363 0 .788.291 1.385.874 1.79.582.397 1.324.596 2.226.596zm18.487 8.672c-1.3 0-2.419-.17-3.356-.511-.93-.341-1.69-.792-2.28-1.353-.589-.561-1.03-1.175-1.321-1.843l2.738-1.13c.192.313.447.643.767.991.327.355.767.657 1.321.906.561.248 1.282.373 2.163.373 1.207 0 2.205-.295 2.993-.884.789-.583 1.183-1.513 1.183-2.792v-3.217h-.203a7.163 7.163 0 01-.831 1.161c-.355.426-.845.796-1.47 1.108-.625.313-1.438.469-2.439.469-1.293 0-2.458-.302-3.495-.906-1.03-.61-1.846-1.509-2.45-2.695-.597-1.193-.895-2.66-.895-4.4 0-1.74.295-3.231.884-4.474.597-1.243 1.414-2.195 2.451-2.855 1.037-.668 2.212-1.002 3.526-1.002 1.016 0 1.836.17 2.461.512.625.334 1.111.724 1.459 1.171.356.448.629.842.821 1.183h.234v-2.653h3.122v16.726c0 1.407-.327 2.56-.981 3.463-.653.902-1.537 1.57-2.652 2.002-1.108.434-2.358.65-3.75.65zm-.032-9.364c.916 0 1.69-.213 2.322-.64.639-.432 1.122-1.05 1.449-1.853.334-.81.501-1.78.501-2.908 0-1.101-.164-2.07-.49-2.909-.327-.838-.806-1.491-1.438-1.96-.633-.476-1.414-.714-2.344-.714-.959 0-1.758.249-2.397.746-.639.49-1.122 1.158-1.449 2.003-.32.845-.48 1.79-.48 2.834 0 1.072.164 2.013.491 2.823.326.81.809 1.442 1.448 1.896.647.455 1.442.682 2.387.682zm18.739 3.217c-1.612 0-3.001-.344-4.165-1.033-1.158-.696-2.053-1.673-2.685-2.93-.625-1.264-.938-2.745-.938-4.442 0-1.676.313-3.154.938-4.432.632-1.279 1.513-2.276 2.642-2.994 1.136-.717 2.465-1.076 3.984-1.076.924 0 1.819.153 2.685.458a6.498 6.498 0 012.333 1.439c.689.653 1.232 1.502 1.63 2.546.398 1.037.597 2.297.597 3.782v1.129h-13.008v-2.386h9.886c0-.838-.17-1.58-.511-2.227a3.866 3.866 0 00-1.438-1.545c-.611-.376-1.328-.564-2.152-.564-.895 0-1.676.22-2.344.66a4.427 4.427 0 00-1.534 1.705 4.923 4.923 0 00-.533 2.269v1.864c0 1.094.192 2.024.575 2.791.391.767.934 1.353 1.63 1.758.696.398 1.51.597 2.44.597.604 0 1.154-.085 1.651-.256.498-.177.927-.44 1.289-.788.363-.348.64-.778.831-1.29l3.015.544a5.453 5.453 0 01-1.299 2.333c-.618.66-1.396 1.176-2.334 1.545-.93.362-1.992.543-3.185.543zm25.355 6.147c-1.299 0-2.418-.17-3.356-.511-.93-.341-1.69-.792-2.279-1.353-.59-.561-1.03-1.175-1.321-1.843l2.737-1.13c.192.313.448.643.768.991.326.355.767.657 1.321.906.561.248 1.282.373 2.162.373 1.208 0 2.205-.295 2.994-.884.788-.583 1.182-1.513 1.182-2.792v-3.217h-.202a7.289 7.289 0 01-.831 1.161c-.355.426-.845.796-1.47 1.108-.625.313-1.438.469-2.44.469-1.292 0-2.457-.302-3.494-.906-1.03-.61-1.847-1.509-2.45-2.695-.597-1.193-.895-2.66-.895-4.4 0-1.74.294-3.231.884-4.474.596-1.243 1.413-2.195 2.45-2.855 1.037-.668 2.213-1.002 3.526-1.002 1.016 0 1.836.17 2.461.512.625.334 1.112.724 1.46 1.171.355.448.628.842.82 1.183h.235v-2.653h3.121v16.726c0 1.407-.327 2.56-.98 3.463-.653.902-1.538 1.57-2.653 2.002-1.108.434-2.358.65-3.75.65zm-.032-9.364c.916 0 1.691-.213 2.323-.64.639-.432 1.122-1.05 1.449-1.853.333-.81.5-1.78.5-2.908 0-1.101-.163-2.07-.49-2.909-.326-.838-.806-1.491-1.438-1.96-.632-.476-1.413-.714-2.344-.714-.959 0-1.758.249-2.397.746-.639.49-1.122 1.158-1.449 2.003-.319.845-.479 1.79-.479 2.834 0 1.072.163 2.013.49 2.823.327.81.81 1.442 1.449 1.896.646.455 1.442.682 2.386.682zm16.449 3.25c-1.037 0-1.974-.193-2.812-.576a4.74 4.74 0 01-1.993-1.694c-.483-.739-.724-1.644-.724-2.717 0-.923.178-1.683.533-2.28a3.927 3.927 0 011.438-1.416 7.513 7.513 0 012.024-.789 20.149 20.149 0 012.28-.404l2.386-.278c.611-.078 1.055-.202 1.332-.372.277-.17.415-.448.415-.831v-.075c0-.93-.262-1.651-.788-2.162-.518-.512-1.293-.768-2.322-.768-1.073 0-1.918.238-2.536.714-.611.469-1.033.991-1.268 1.566l-2.993-.682c.355-.994.873-1.796 1.555-2.407a6.31 6.31 0 012.376-1.343 9.275 9.275 0 012.823-.426c.653 0 1.346.078 2.077.235a6.09 6.09 0 012.067.83c.646.406 1.176.984 1.588 1.737.411.746.617 1.715.617 2.908V50h-3.11v-2.237h-.128c-.206.412-.515.817-.927 1.214-.412.398-.941.728-1.587.991-.647.263-1.421.394-2.323.394zm.693-2.558c.88 0 1.633-.174 2.258-.522.632-.348 1.112-.802 1.438-1.363a3.535 3.535 0 00.501-1.822v-2.11c-.114.114-.334.22-.66.32-.32.093-.686.174-1.098.245-.412.064-.813.125-1.204.181l-.98.128a7.902 7.902 0 00-1.694.394c-.504.185-.909.451-1.214.8-.298.34-.448.795-.448 1.363 0 .788.292 1.385.874 1.79.582.397 1.325.596 2.227.596zm11.625 8.331v-22.5h3.111v2.653h.266c.185-.34.451-.735.799-1.183.348-.447.831-.837 1.449-1.171.618-.341 1.435-.512 2.45-.512 1.321 0 2.5.334 3.537 1.002 1.037.667 1.85 1.63 2.44 2.887.597 1.257.895 2.77.895 4.538 0 1.769-.295 3.285-.884 4.55-.59 1.256-1.4 2.226-2.429 2.907-1.03.675-2.206 1.013-3.527 1.013-.994 0-1.807-.167-2.439-.501-.625-.334-1.115-.725-1.47-1.172a8.82 8.82 0 01-.821-1.193h-.191v8.682h-3.186zm3.122-14.318c0 1.15.166 2.16.5 3.026.334.866.817 1.544 1.449 2.035.632.483 1.406.724 2.323.724.951 0 1.747-.252 2.386-.756.639-.512 1.122-1.204 1.449-2.078.334-.873.501-1.857.501-2.95 0-1.08-.164-2.05-.491-2.91-.319-.859-.802-1.537-1.448-2.034-.64-.497-1.439-.746-2.397-.746-.924 0-1.705.238-2.344.714-.632.476-1.112 1.14-1.438 1.992-.327.852-.49 1.847-.49 2.983zM424.938 50V33.636h3.186V50h-3.186zm1.609-18.889c-.554 0-1.03-.184-1.428-.553-.39-.377-.586-.824-.586-1.343 0-.525.196-.973.586-1.342a2.005 2.005 0 011.428-.565c.554 0 1.026.188 1.417.565.398.37.596.817.596 1.342 0 .519-.198.966-.596 1.343a1.99 1.99 0 01-1.417.553zm9.047 9.173V50h-3.185V33.636h3.057V36.3h.203a4.677 4.677 0 011.768-2.088c.81-.526 1.829-.789 3.058-.789 1.115 0 2.091.235 2.93.703.838.462 1.487 1.151 1.949 2.067.462.916.693 2.05.693 3.399V50h-3.186V39.975c0-1.186-.309-2.113-.927-2.78-.618-.675-1.466-1.013-2.546-1.013-.738 0-1.395.16-1.971.48-.568.32-1.019.788-1.353 1.406-.326.611-.49 1.35-.49 2.216zm27.446 10.078c-1.037 0-1.974-.192-2.812-.575a4.74 4.74 0 01-1.993-1.694c-.483-.739-.724-1.644-.724-2.717 0-.923.178-1.683.533-2.28a3.927 3.927 0 011.438-1.416 7.513 7.513 0 012.024-.789 20.149 20.149 0 012.28-.404l2.386-.278c.611-.078 1.055-.202 1.332-.372.277-.17.415-.448.415-.831v-.075c0-.93-.262-1.651-.788-2.162-.518-.512-1.293-.768-2.322-.768-1.073 0-1.918.238-2.536.714-.611.469-1.033.991-1.268 1.566l-2.993-.682c.355-.994.873-1.796 1.555-2.407a6.31 6.31 0 012.376-1.343 9.275 9.275 0 012.823-.426c.653 0 1.346.078 2.077.235a6.09 6.09 0 012.067.83c.646.406 1.176.984 1.588 1.737.411.746.617 1.715.617 2.908V50h-3.11v-2.237h-.128c-.206.412-.515.817-.927 1.214-.412.398-.941.728-1.587.991-.647.263-1.421.394-2.323.394zm.693-2.557c.88 0 1.633-.174 2.258-.522.632-.348 1.112-.802 1.438-1.363a3.535 3.535 0 00.501-1.822v-2.11c-.114.114-.334.22-.66.32-.32.093-.686.174-1.098.245-.412.064-.813.125-1.204.181l-.98.128a7.902 7.902 0 00-1.694.394c-.504.185-.909.451-1.214.8-.298.34-.448.795-.448 1.363 0 .788.292 1.385.874 1.79.582.397 1.325.596 2.227.596zm14.811-7.52V50h-3.186V33.636h3.058V36.3h.202a4.673 4.673 0 011.769-2.088c.809-.526 1.828-.789 3.057-.789 1.115 0 2.092.235 2.93.703.838.462 1.488 1.151 1.949 2.067.462.916.693 2.05.693 3.399V50h-3.186V39.975c0-1.186-.309-2.113-.926-2.78-.618-.675-1.467-1.013-2.547-1.013-.738 0-1.395.16-1.97.48-.569.32-1.02.788-1.353 1.406-.327.611-.49 1.35-.49 2.216zm17.929 0V50h-3.185V33.636h3.057V36.3h.203a4.677 4.677 0 011.768-2.088c.81-.526 1.829-.789 3.058-.789 1.115 0 2.091.235 2.929.703.839.462 1.488 1.151 1.95 2.067.462.916.692 2.05.692 3.399V50h-3.185V39.975c0-1.186-.309-2.113-.927-2.78-.618-.675-1.466-1.013-2.546-1.013-.739 0-1.395.16-1.971.48-.568.32-1.019.788-1.353 1.406-.326.611-.49 1.35-.49 2.216zm25.11 2.929v-9.578h3.196V50h-3.132v-2.834h-.17c-.377.874-.98 1.602-1.811 2.184-.824.575-1.85.863-3.079.863-1.051 0-1.982-.23-2.791-.692-.803-.47-1.435-1.162-1.897-2.078-.454-.916-.681-2.049-.681-3.398V33.636h3.185v10.025c0 1.115.309 2.003.927 2.664.618.66 1.42.99 2.407.99.597 0 1.19-.149 1.78-.447a3.745 3.745 0 001.48-1.353c.398-.604.593-1.37.586-2.301zm12.238 7.148c-1.037 0-1.974-.192-2.812-.575a4.737 4.737 0 01-1.992-1.694c-.483-.739-.725-1.644-.725-2.717 0-.923.178-1.683.533-2.28a3.927 3.927 0 011.438-1.416 7.526 7.526 0 012.024-.789 20.149 20.149 0 012.28-.404l2.386-.278c.611-.078 1.055-.202 1.332-.372.277-.17.416-.448.416-.831v-.075c0-.93-.263-1.651-.789-2.162-.518-.512-1.292-.768-2.322-.768-1.073 0-1.918.238-2.536.714-.61.469-1.033.991-1.267 1.566l-2.994-.682c.355-.994.874-1.796 1.555-2.407a6.31 6.31 0 012.376-1.343 9.275 9.275 0 012.823-.426c.654 0 1.346.078 2.078.235a6.08 6.08 0 012.066.83c.647.406 1.176.984 1.588 1.737.412.746.618 1.715.618 2.908V50h-3.111v-2.237h-.128c-.206.412-.515.817-.927 1.214-.412.398-.941.728-1.587.991s-1.421.394-2.323.394zm.693-2.557c.881 0 1.633-.174 2.258-.522.632-.348 1.112-.802 1.439-1.363.333-.568.5-1.176.5-1.822v-2.11c-.113.114-.334.22-.66.32-.32.093-.686.174-1.098.245-.411.064-.813.125-1.203.181-.391.05-.718.093-.98.128a7.888 7.888 0 00-1.694.394c-.505.185-.909.451-1.215.8-.298.34-.447.795-.447 1.363 0 .788.291 1.385.873 1.79.583.397 1.325.596 2.227.596zm14.811-19.623V50h-3.186V28.182h3.186zM561.55 50V33.636h3.185V50h-3.185zm1.608-18.889c-.554 0-1.03-.184-1.427-.553-.391-.377-.586-.824-.586-1.343 0-.525.195-.973.586-1.342a2.001 2.001 0 011.427-.565c.554 0 1.026.188 1.417.565.398.37.597.817.597 1.342 0 .519-.199.966-.597 1.343a1.99 1.99 0 01-1.417.553zm9.048 9.173V50h-3.186V33.636h3.058V36.3h.202a4.68 4.68 0 011.769-2.088c.809-.526 1.828-.789 3.057-.789 1.115 0 2.092.235 2.93.703.838.462 1.488 1.151 1.949 2.067.462.916.693 2.05.693 3.399V50h-3.185V39.975c0-1.186-.309-2.113-.927-2.78-.618-.675-1.467-1.013-2.546-1.013-.739 0-1.396.16-1.971.48-.569.32-1.02.788-1.353 1.406-.327.611-.49 1.35-.49 2.216zm21.637 10.046c-1.584 0-2.948-.358-4.091-1.076-1.137-.724-2.01-1.722-2.621-2.993-.611-1.272-.916-2.728-.916-4.368 0-1.662.312-3.129.937-4.4.625-1.279 1.506-2.276 2.642-2.994 1.137-.717 2.476-1.076 4.017-1.076 1.243 0 2.351.231 3.324.693.973.454 1.757 1.093 2.354 1.917.604.824.962 1.787 1.076 2.887h-3.1c-.171-.767-.561-1.427-1.172-1.981-.604-.554-1.413-.831-2.429-.831-.888 0-1.665.234-2.333.703-.661.462-1.176 1.122-1.545 1.982-.369.852-.554 1.86-.554 3.025 0 1.193.181 2.223.543 3.09.363.866.874 1.537 1.535 2.013.667.476 1.452.714 2.354.714a3.96 3.96 0 001.641-.33 3.35 3.35 0 001.246-.97c.341-.419.579-.923.714-1.513h3.1c-.114 1.059-.458 2.003-1.033 2.834-.576.831-1.346 1.485-2.312 1.96-.959.476-2.085.714-3.377.714zm17.021 0c-1.534 0-2.873-.351-4.016-1.054-1.144-.704-2.031-1.687-2.664-2.951-.632-1.265-.948-2.742-.948-4.432 0-1.698.316-3.182.948-4.453.633-1.272 1.52-2.259 2.664-2.962 1.143-.703 2.482-1.055 4.016-1.055 1.534 0 2.873.352 4.017 1.055 1.143.703 2.031 1.69 2.663 2.962.632 1.27.948 2.755.948 4.453 0 1.69-.316 3.167-.948 4.432-.632 1.264-1.52 2.247-2.663 2.95-1.144.704-2.483 1.055-4.017 1.055zm.011-2.674c.994 0 1.818-.262 2.471-.788.654-.526 1.137-1.225 1.449-2.099.32-.873.48-1.836.48-2.887 0-1.044-.16-2.003-.48-2.876-.312-.881-.795-1.588-1.449-2.12-.653-.533-1.477-.8-2.471-.8-1.002 0-1.833.267-2.493.8-.653.532-1.14 1.239-1.46 2.12-.312.873-.468 1.832-.468 2.876 0 1.051.156 2.014.468 2.887.32.874.807 1.573 1.46 2.099.66.526 1.491.788 2.493.788zM622.048 50V33.636h3.057V36.3h.203c.34-.902.898-1.605 1.672-2.11.774-.511 1.701-.767 2.781-.767 1.093 0 2.01.256 2.748.767.746.512 1.296 1.215 1.652 2.11h.17c.391-.874 1.012-1.57 1.864-2.088.853-.526 1.868-.789 3.047-.789 1.485 0 2.696.465 3.633 1.396.945.93 1.417 2.333 1.417 4.208V50h-3.185V39.325c0-1.108-.302-1.91-.906-2.407-.604-.498-1.325-.746-2.163-.746-1.037 0-1.843.32-2.418.959-.575.632-.863 1.445-.863 2.44V50h-3.175V39.123c0-.888-.277-1.602-.831-2.142-.554-.54-1.274-.81-2.162-.81-.604 0-1.161.16-1.673.48-.504.313-.912.75-1.225 1.31-.305.562-.458 1.212-.458 1.95V50h-3.185zm33.566.33c-1.612 0-3.001-.344-4.166-1.033-1.157-.696-2.052-1.673-2.684-2.93-.625-1.264-.938-2.745-.938-4.442 0-1.676.313-3.154.938-4.432.632-1.279 1.512-2.276 2.642-2.994 1.136-.717 2.464-1.076 3.984-1.076.923 0 1.818.153 2.685.458a6.507 6.507 0 012.333 1.439c.689.653 1.232 1.502 1.63 2.546.398 1.037.596 2.297.596 3.782v1.129h-13.007v-2.386h9.886c0-.838-.17-1.58-.511-2.227a3.868 3.868 0 00-1.439-1.545c-.61-.376-1.328-.564-2.152-.564-.894 0-1.676.22-2.343.66a4.427 4.427 0 00-1.534 1.705 4.91 4.91 0 00-.533 2.269v1.864c0 1.094.192 2.024.575 2.791.391.767.934 1.353 1.63 1.758.696.398 1.509.597 2.44.597.603 0 1.154-.085 1.651-.256.497-.177.927-.44 1.289-.788a3.43 3.43 0 00.831-1.29l3.015.544a5.455 5.455 0 01-1.3 2.333c-.618.66-1.395 1.176-2.333 1.545-.93.362-1.992.543-3.185.543zm22.817-12.699l-2.887.512a3.422 3.422 0 00-.576-1.055c-.255-.334-.603-.607-1.044-.82-.44-.213-.99-.32-1.651-.32-.902 0-1.655.203-2.258.607-.604.398-.906.913-.906 1.545 0 .547.202.987.607 1.321.405.334 1.059.607 1.96.82l2.6.597c1.506.348 2.628.884 3.366 1.609.739.724 1.108 1.665 1.108 2.823a4.29 4.29 0 01-.852 2.62c-.561.76-1.346 1.357-2.354 1.79-1.002.434-2.163.65-3.484.65-1.832 0-3.327-.39-4.485-1.172-1.158-.788-1.868-1.907-2.131-3.355l3.079-.47c.192.803.586 1.41 1.183 1.823.596.404 1.374.607 2.333.607 1.044 0 1.878-.217 2.503-.65.625-.44.938-.977.938-1.609a1.67 1.67 0 00-.576-1.289c-.376-.348-.955-.61-1.736-.788l-2.77-.607c-1.527-.348-2.656-.902-3.388-1.662-.724-.76-1.086-1.723-1.086-2.887 0-.966.27-1.812.809-2.536.54-.724 1.286-1.289 2.238-1.694.951-.412 2.041-.618 3.27-.618 1.769 0 3.161.384 4.176 1.15 1.016.76 1.687 1.78 2.014 3.058zm19.549-3.995v2.557h-9.247v-2.557h9.247zM691.268 50V31.74c0-1.023.224-1.871.671-2.546a4.122 4.122 0 011.779-1.523 5.678 5.678 0 012.408-.512c.639 0 1.186.053 1.641.16.454.1.792.192 1.012.277l-.746 2.578a15.316 15.316 0 00-.575-.15 3.283 3.283 0 00-.853-.095c-.774 0-1.328.192-1.661.575-.327.384-.491.938-.491 1.662V50h-3.185zm9.998 0V33.636h3.079v2.6h.171a3.952 3.952 0 011.576-2.078c.76-.511 1.62-.767 2.578-.767a13.65 13.65 0 011.353.075v3.047a5.682 5.682 0 00-.681-.117 6.517 6.517 0 00-.98-.075c-.753 0-1.424.16-2.014.48a3.565 3.565 0 00-1.385 1.31c-.341.554-.511 1.186-.511 1.896V50h-3.186zm17.821.33c-1.534 0-2.873-.351-4.017-1.054-1.143-.704-2.031-1.687-2.663-2.951-.632-1.265-.948-2.742-.948-4.432 0-1.698.316-3.182.948-4.453.632-1.272 1.52-2.259 2.663-2.962 1.144-.703 2.483-1.055 4.017-1.055 1.534 0 2.873.352 4.016 1.055 1.144.703 2.031 1.69 2.664 2.962.632 1.27.948 2.755.948 4.453 0 1.69-.316 3.167-.948 4.432-.633 1.264-1.52 2.247-2.664 2.95-1.143.704-2.482 1.055-4.016 1.055zm.01-2.674c.995 0 1.819-.262 2.472-.788s1.136-1.225 1.449-2.099c.32-.873.479-1.836.479-2.887 0-1.044-.159-2.003-.479-2.876-.313-.881-.796-1.588-1.449-2.12-.653-.533-1.477-.8-2.472-.8-1.001 0-1.832.267-2.492.8-.654.532-1.14 1.239-1.46 2.12-.312.873-.469 1.832-.469 2.876 0 1.051.157 2.014.469 2.887.32.874.806 1.573 1.46 2.099.66.526 1.491.788 2.492.788zM730.27 50V33.636h3.058V36.3h.202c.341-.902.899-1.605 1.673-2.11.774-.511 1.701-.767 2.78-.767 1.094 0 2.01.256 2.749.767.746.512 1.296 1.215 1.651 2.11h.171c.39-.874 1.012-1.57 1.864-2.088.852-.526 1.868-.789 3.047-.789 1.484 0 2.695.465 3.633 1.396.944.93 1.417 2.333 1.417 4.208V50h-3.186V39.325c0-1.108-.302-1.91-.905-2.407-.604-.498-1.325-.746-2.163-.746-1.037 0-1.843.32-2.418.959-.576.632-.863 1.445-.863 2.44V50h-3.175V39.123c0-.888-.277-1.602-.831-2.142-.554-.54-1.275-.81-2.163-.81-.603 0-1.161.16-1.672.48-.504.313-.913.75-1.225 1.31-.306.562-.458 1.212-.458 1.95V50h-3.186zm38.001 0l-4.815-16.364h3.292l3.206 12.017h.16l3.217-12.017h3.292l3.196 11.964h.16l3.185-11.964h3.292L781.652 50h-3.25l-3.324-11.815h-.245L771.51 50h-3.239zm25.97.362c-1.037 0-1.974-.192-2.812-.575a4.737 4.737 0 01-1.992-1.694c-.483-.739-.725-1.644-.725-2.717 0-.923.178-1.683.533-2.28a3.927 3.927 0 011.438-1.416 7.513 7.513 0 012.024-.789 20.149 20.149 0 012.28-.404l2.386-.278c.611-.078 1.055-.202 1.332-.372.277-.17.416-.448.416-.831v-.075c0-.93-.263-1.651-.789-2.162-.518-.512-1.292-.768-2.322-.768-1.073 0-1.918.238-2.536.714-.611.469-1.033.991-1.268 1.566l-2.993-.682c.355-.994.873-1.796 1.555-2.407a6.31 6.31 0 012.376-1.343 9.275 9.275 0 012.823-.426c.654 0 1.346.078 2.078.235a6.08 6.08 0 012.066.83c.647.406 1.176.984 1.588 1.737.412.746.618 1.715.618 2.908V50h-3.111v-2.237h-.128c-.206.412-.515.817-.927 1.214-.412.398-.941.728-1.587.991-.647.263-1.421.394-2.323.394zm.693-2.557c.88 0 1.633-.174 2.258-.522.632-.348 1.112-.802 1.439-1.363.333-.568.5-1.176.5-1.822v-2.11c-.113.114-.334.22-.66.32-.32.093-.686.174-1.098.245-.412.064-.813.125-1.203.181-.391.05-.718.093-.981.128a7.892 7.892 0 00-1.693.394c-.505.185-.91.451-1.215.8-.298.34-.447.795-.447 1.363 0 .788.291 1.385.873 1.79.583.397 1.325.596 2.227.596zm18.486 8.672c-1.3 0-2.418-.17-3.356-.511-.93-.341-1.69-.792-2.28-1.353-.589-.561-1.029-1.175-1.321-1.843l2.738-1.13c.192.313.448.643.767.991.327.355.767.657 1.321.906.561.248 1.282.373 2.163.373 1.207 0 2.205-.295 2.994-.884.788-.583 1.182-1.513 1.182-2.792v-3.217h-.202a7.289 7.289 0 01-.831 1.161c-.355.426-.845.796-1.47 1.108-.625.313-1.439.469-2.44.469-1.293 0-2.457-.302-3.494-.906-1.03-.61-1.847-1.509-2.451-2.695-.596-1.193-.894-2.66-.894-4.4 0-1.74.294-3.231.884-4.474.596-1.243 1.413-2.195 2.45-2.855 1.037-.668 2.212-1.002 3.526-1.002 1.016 0 1.836.17 2.461.512.625.334 1.112.724 1.46 1.171.355.448.628.842.82 1.183h.234v-2.653h3.122v16.726c0 1.407-.327 2.56-.98 3.463-.654.902-1.538 1.57-2.653 2.002-1.108.434-2.358.65-3.75.65zm-.032-9.364c.916 0 1.69-.213 2.323-.64.639-.432 1.122-1.05 1.448-1.853.334-.81.501-1.78.501-2.908 0-1.101-.163-2.07-.49-2.909-.327-.838-.806-1.491-1.438-1.96-.632-.476-1.413-.714-2.344-.714-.959 0-1.758.249-2.397.746-.639.49-1.122 1.158-1.449 2.003-.319.845-.479 1.79-.479 2.834 0 1.072.163 2.013.49 2.823.327.81.81 1.442 1.449 1.896.646.455 1.442.682 2.386.682zm18.739 3.217c-1.612 0-3-.344-4.165-1.033-1.158-.696-2.053-1.673-2.685-2.93-.625-1.264-.937-2.745-.937-4.442 0-1.676.312-3.154.937-4.432.632-1.279 1.513-2.276 2.642-2.994 1.137-.717 2.465-1.076 3.985-1.076.923 0 1.818.153 2.684.458a6.502 6.502 0 012.334 1.439c.688.653 1.232 1.502 1.629 2.546.398 1.037.597 2.297.597 3.782v1.129H826.14v-2.386h9.887c0-.838-.171-1.58-.512-2.227a3.866 3.866 0 00-1.438-1.545c-.611-.376-1.328-.564-2.152-.564-.895 0-1.676.22-2.344.66a4.435 4.435 0 00-1.534 1.705 4.922 4.922 0 00-.532 2.269v1.864c0 1.094.191 2.024.575 2.791.39.767.934 1.353 1.63 1.758.696.398 1.509.597 2.439.597a5.07 5.07 0 001.652-.256c.497-.177.927-.44 1.289-.788a3.43 3.43 0 00.831-1.29l3.015.544a5.465 5.465 0 01-1.3 2.333c-.618.66-1.396 1.176-2.333 1.545-.931.362-1.992.543-3.186.543zm22.817-12.699l-2.887.512a3.395 3.395 0 00-.575-1.055c-.256-.334-.604-.607-1.044-.82-.44-.213-.991-.32-1.651-.32-.902 0-1.655.203-2.259.607-.603.398-.905.913-.905 1.545 0 .547.202.987.607 1.321.405.334 1.058.607 1.96.82l2.6.597c1.505.348 2.627.884 3.366 1.609.739.724 1.108 1.665 1.108 2.823a4.29 4.29 0 01-.852 2.62c-.561.76-1.346 1.357-2.355 1.79-1.001.434-2.162.65-3.483.65-1.833 0-3.328-.39-4.485-1.172-1.158-.788-1.868-1.907-2.131-3.355l3.079-.47c.192.803.586 1.41 1.182 1.823.597.404 1.375.607 2.333.607 1.044 0 1.879-.217 2.504-.65.625-.44.937-.977.937-1.609a1.67 1.67 0 00-.575-1.289c-.376-.348-.955-.61-1.736-.788l-2.77-.607c-1.527-.348-2.656-.902-3.388-1.662-.724-.76-1.087-1.723-1.087-2.887 0-.966.27-1.812.81-2.536s1.285-1.289 2.237-1.694c.952-.412 2.042-.618 3.271-.618 1.768 0 3.16.384 4.176 1.15 1.016.76 1.687 1.78 2.013 3.058zm16.524 12.731c-1.037 0-1.975-.192-2.813-.575a4.737 4.737 0 01-1.992-1.694c-.483-.739-.724-1.644-.724-2.717 0-.923.177-1.683.532-2.28a3.937 3.937 0 011.439-1.416 7.5 7.5 0 012.024-.789 20.11 20.11 0 012.28-.404l2.386-.278c.611-.078 1.055-.202 1.332-.372.277-.17.415-.448.415-.831v-.075c0-.93-.263-1.651-.788-2.162-.519-.512-1.293-.768-2.323-.768-1.072 0-1.917.238-2.535.714-.611.469-1.034.991-1.268 1.566l-2.994-.682c.356-.994.874-1.796 1.556-2.407a6.31 6.31 0 012.376-1.343 9.265 9.265 0 012.823-.426c.653 0 1.346.078 2.077.235a6.09 6.09 0 012.067.83c.646.406 1.175.984 1.587 1.737.412.746.618 1.715.618 2.908V50h-3.111v-2.237h-.127c-.206.412-.515.817-.927 1.214-.412.398-.941.728-1.588.991-.646.263-1.42.394-2.322.394zm.692-2.557c.881 0 1.634-.174 2.259-.522.632-.348 1.111-.802 1.438-1.363a3.535 3.535 0 00.501-1.822v-2.11c-.114.114-.334.22-.661.32a10.23 10.23 0 01-1.097.245c-.412.064-.813.125-1.204.181l-.98.128a7.888 7.888 0 00-1.694.394c-.504.185-.909.451-1.214.8-.299.34-.448.795-.448 1.363 0 .788.291 1.385.874 1.79.582.397 1.324.596 2.226.596zm14.811-7.52V50h-3.185V33.636h3.057V36.3h.203a4.677 4.677 0 011.768-2.088c.81-.526 1.829-.789 3.058-.789 1.115 0 2.091.235 2.929.703.839.462 1.488 1.151 1.95 2.067.462.916.693 2.05.693 3.399V50h-3.186V39.975c0-1.186-.309-2.113-.927-2.78-.618-.675-1.466-1.013-2.546-1.013-.738 0-1.395.16-1.971.48-.568.32-1.019.788-1.353 1.406-.326.611-.49 1.35-.49 2.216zm20.87 10.035c-1.321 0-2.5-.338-3.537-1.013-1.029-.681-1.839-1.65-2.429-2.908-.582-1.264-.873-2.78-.873-4.549 0-1.768.295-3.281.884-4.538.597-1.257 1.413-2.22 2.45-2.887 1.037-.668 2.213-1.002 3.527-1.002 1.015 0 1.832.17 2.45.512.625.334 1.108.724 1.449 1.171.348.448.618.842.809 1.183h.192v-8.107h3.186V50h-3.111v-2.546h-.267a8.3 8.3 0 01-.831 1.193c-.355.447-.845.838-1.47 1.172-.625.334-1.434.5-2.429.5zm.703-2.717c.917 0 1.691-.242 2.323-.724.639-.49 1.122-1.169 1.449-2.035.334-.867.5-1.875.5-3.026 0-1.136-.163-2.13-.49-2.983-.326-.852-.806-1.516-1.438-1.992-.632-.476-1.413-.714-2.344-.714-.958 0-1.757.249-2.397.746-.639.497-1.122 1.175-1.448 2.035-.32.86-.48 1.829-.48 2.908 0 1.094.163 2.078.49 2.951.327.874.81 1.566 1.449 2.078.646.504 1.442.756 2.386.756zm32.152-9.972l-2.887.512a3.395 3.395 0 00-.575-1.055c-.256-.334-.604-.607-1.044-.82-.44-.213-.991-.32-1.651-.32-.902 0-1.655.203-2.259.607-.604.398-.905.913-.905 1.545 0 .547.202.987.607 1.321.405.334 1.058.607 1.96.82l2.6.597c1.505.348 2.627.884 3.366 1.609.739.724 1.108 1.665 1.108 2.823a4.29 4.29 0 01-.852 2.62c-.561.76-1.346 1.357-2.355 1.79-1.001.434-2.162.65-3.483.65-1.833 0-3.328-.39-4.485-1.172-1.158-.788-1.868-1.907-2.131-3.355l3.079-.47c.191.803.586 1.41 1.182 1.823.597.404 1.375.607 2.333.607 1.044 0 1.879-.217 2.504-.65.625-.44.937-.977.937-1.609a1.67 1.67 0 00-.575-1.289c-.376-.348-.955-.61-1.736-.788l-2.77-.607c-1.527-.348-2.657-.902-3.388-1.662-.725-.76-1.087-1.723-1.087-2.887 0-.966.27-1.812.81-2.536s1.285-1.289 2.237-1.694c.952-.412 2.042-.618 3.271-.618 1.768 0 3.16.384 4.176 1.15 1.016.76 1.687 1.78 2.013 3.058zm8.584 12.731c-1.037 0-1.974-.192-2.812-.575a4.737 4.737 0 01-1.992-1.694c-.483-.739-.725-1.644-.725-2.717 0-.923.178-1.683.533-2.28a3.927 3.927 0 011.438-1.416 7.526 7.526 0 012.024-.789 20.149 20.149 0 012.28-.404l2.386-.278c.611-.078 1.055-.202 1.332-.372.277-.17.416-.448.416-.831v-.075c0-.93-.263-1.651-.789-2.162-.518-.512-1.292-.768-2.322-.768-1.073 0-1.918.238-2.536.714-.61.469-1.033.991-1.267 1.566l-2.994-.682c.355-.994.874-1.796 1.555-2.407a6.31 6.31 0 012.376-1.343 9.275 9.275 0 012.823-.426c.654 0 1.346.078 2.078.235a6.08 6.08 0 012.066.83c.647.406 1.176.984 1.588 1.737.412.746.618 1.715.618 2.908V50h-3.111v-2.237h-.128c-.206.412-.515.817-.927 1.214-.412.398-.941.728-1.587.991-.647.263-1.421.394-2.323.394zm.693-2.557c.881 0 1.633-.174 2.258-.522.632-.348 1.112-.802 1.439-1.363.333-.568.5-1.176.5-1.822v-2.11c-.113.114-.334.22-.66.32-.32.093-.686.174-1.098.245-.411.064-.813.125-1.203.181-.391.05-.718.093-.98.128a7.888 7.888 0 00-1.694.394c-.505.185-.909.451-1.215.8-.298.34-.447.795-.447 1.363 0 .788.291 1.385.873 1.79.583.397 1.325.596 2.227.596zm14.811-19.623V50h-3.186V28.182h3.186zm9.047 22.18c-1.037 0-1.974-.192-2.812-.575a4.746 4.746 0 01-1.993-1.694c-.482-.739-.724-1.644-.724-2.717 0-.923.178-1.683.533-2.28a3.927 3.927 0 011.438-1.416 7.513 7.513 0 012.024-.789 20.149 20.149 0 012.28-.404l2.386-.278c.611-.078 1.055-.202 1.332-.372.277-.17.415-.448.415-.831v-.075c0-.93-.262-1.651-.788-2.162-.518-.512-1.293-.768-2.322-.768-1.073 0-1.918.238-2.536.714-.611.469-1.033.991-1.268 1.566l-2.993-.682c.355-.994.873-1.796 1.555-2.407a6.31 6.31 0 012.376-1.343 9.275 9.275 0 012.823-.426c.653 0 1.346.078 2.077.235a6.09 6.09 0 012.067.83c.646.406 1.176.984 1.588 1.737.411.746.617 1.715.617 2.908V50h-3.11v-2.237h-.128c-.206.412-.515.817-.927 1.214-.412.398-.941.728-1.587.991-.647.263-1.421.394-2.323.394zm.693-2.557c.88 0 1.633-.174 2.258-.522.632-.348 1.112-.802 1.438-1.363a3.535 3.535 0 00.501-1.822v-2.11c-.114.114-.334.22-.66.32-.32.093-.686.174-1.098.245-.412.064-.813.125-1.204.181l-.98.128a7.902 7.902 0 00-1.694.394c-.504.185-.909.451-1.214.8-.298.34-.448.795-.448 1.363 0 .788.292 1.385.874 1.79.582.397 1.325.596 2.227.596zM986.149 50V33.636h3.079v2.6h.17a3.958 3.958 0 011.577-2.078c.76-.511 1.619-.767 2.578-.767a13.582 13.582 0 011.353.075v3.047a5.709 5.709 0 00-.682-.117 6.497 6.497 0 00-.98-.075c-.753 0-1.424.16-2.013.48a3.558 3.558 0 00-1.385 1.31c-.341.554-.511 1.186-.511 1.896V50h-3.186zm11.514 0V33.636h3.187V50h-3.187zm1.608-18.889a2.026 2.026 0 01-1.427-.553c-.391-.377-.586-.824-.586-1.343 0-.525.195-.973.586-1.342a2.005 2.005 0 011.427-.565 1.97 1.97 0 011.419.565c.4.37.59.817.59 1.342 0 .519-.19.966-.59 1.343-.39.369-.865.553-1.419.553zm12.919 19.22c-1.62 0-3-.345-4.17-1.034-1.16-.696-2.05-1.673-2.68-2.93-.63-1.264-.94-2.745-.94-4.442 0-1.676.31-3.154.94-4.432.63-1.279 1.51-2.276 2.64-2.994 1.13-.717 2.46-1.076 3.98-1.076.93 0 1.82.153 2.69.458.86.306 1.64.785 2.33 1.439.69.653 1.23 1.502 1.63 2.546.4 1.037.6 2.297.6 3.782v1.129h-13.01v-2.386h9.89c0-.838-.18-1.58-.52-2.227a3.896 3.896 0 00-1.43-1.545c-.62-.376-1.33-.564-2.16-.564-.89 0-1.67.22-2.34.66a4.41 4.41 0 00-1.53 1.705 4.867 4.867 0 00-.54 2.269v1.864c0 1.094.19 2.024.58 2.791.39.767.93 1.353 1.63 1.758.69.398 1.51.597 2.44.597.6 0 1.15-.085 1.65-.256.5-.177.93-.44 1.29-.788.36-.348.64-.778.83-1.29l3.01.544a5.393 5.393 0 01-1.3 2.333c-.61.66-1.39 1.176-2.33 1.545-.93.362-1.99.543-3.18.543zm22.81-12.7l-2.88.512c-.12-.37-.32-.721-.58-1.055a2.87 2.87 0 00-1.04-.82c-.44-.213-.99-.32-1.65-.32-.91 0-1.66.203-2.26.607-.61.398-.91.913-.91 1.545 0 .547.2.987.61 1.321.4.334 1.06.607 1.96.82l2.6.597c1.5.348 2.63.884 3.36 1.609.74.724 1.11 1.665 1.11 2.823 0 .98-.28 1.854-.85 2.62-.56.76-1.35 1.357-2.35 1.79-1.01.434-2.17.65-3.49.65-1.83 0-3.33-.39-4.48-1.172-1.16-.788-1.87-1.907-2.13-3.355l3.08-.47c.19.803.58 1.41 1.18 1.823.59.404 1.37.607 2.33.607 1.05 0 1.88-.217 2.5-.65.63-.44.94-.977.94-1.609 0-.511-.19-.94-.57-1.289-.38-.348-.96-.61-1.74-.788l-2.77-.607c-1.53-.348-2.66-.902-3.39-1.662-.72-.76-1.08-1.723-1.08-2.887 0-.966.27-1.812.81-2.536s1.28-1.289 2.23-1.694c.95-.412 2.04-.618 3.27-.618 1.77 0 3.16.384 4.18 1.15 1.02.76 1.69 1.78 2.01 3.058zm5.92 12.571c-.58 0-1.08-.206-1.5-.617a2.06 2.06 0 01-.63-1.513c0-.583.21-1.08.63-1.492a2.05 2.05 0 011.5-.628c.59 0 1.09.21 1.51.628.41.412.62.91.62 1.492 0 .39-.1.749-.29 1.076-.2.32-.45.575-.77.767a2.05 2.05 0 01-1.07.287zm14.24-.202V28.182h3.3v9.481h10.87v-9.481h3.31V50h-3.31v-9.514h-10.87V50h-3.3zm28.91.33c-1.54 0-2.88-.351-4.02-1.054-1.14-.704-2.03-1.687-2.66-2.951-.63-1.265-.95-2.742-.95-4.432 0-1.698.32-3.182.95-4.453.63-1.272 1.52-2.259 2.66-2.962 1.14-.703 2.48-1.055 4.02-1.055 1.53 0 2.87.352 4.01 1.055 1.15.703 2.03 1.69 2.67 2.962.63 1.27.95 2.755.95 4.453 0 1.69-.32 3.167-.95 4.432-.64 1.264-1.52 2.247-2.67 2.95-1.14.704-2.48 1.055-4.01 1.055zm.01-2.674c.99 0 1.82-.262 2.47-.788.65-.526 1.14-1.225 1.45-2.099.32-.873.48-1.836.48-2.887 0-1.044-.16-2.003-.48-2.876-.31-.881-.8-1.588-1.45-2.12-.65-.533-1.48-.8-2.47-.8-1 0-1.83.267-2.49.8-.66.532-1.14 1.239-1.46 2.12-.32.873-.47 1.832-.47 2.876 0 1.051.15 2.014.47 2.887.32.874.8 1.573 1.46 2.099.66.526 1.49.788 2.49.788zM1098.3 50l-4.82-16.364h3.3l3.2 12.017h.16l3.22-12.017h3.29l3.2 11.964h.16l3.18-11.964h3.3L1111.68 50h-3.25l-3.32-11.815h-.25L1101.54 50h-3.24zm27.76.33c-1.61 0-3-.344-4.16-1.033-1.16-.696-2.06-1.673-2.69-2.93-.62-1.264-.93-2.745-.93-4.442 0-1.676.31-3.154.93-4.432.63-1.279 1.52-2.276 2.64-2.994 1.14-.717 2.47-1.076 3.99-1.076.92 0 1.82.153 2.68.458a6.51 6.51 0 012.34 1.439c.69.653 1.23 1.502 1.63 2.546.39 1.037.59 2.297.59 3.782v1.129h-13v-2.386h9.88c0-.838-.17-1.58-.51-2.227a3.85 3.85 0 00-1.44-1.545c-.61-.376-1.33-.564-2.15-.564-.89 0-1.68.22-2.34.66a4.435 4.435 0 00-1.54 1.705 4.984 4.984 0 00-.53 2.269v1.864c0 1.094.19 2.024.58 2.791.39.767.93 1.353 1.63 1.758.69.398 1.5.597 2.43.597.61 0 1.16-.085 1.66-.256.49-.177.92-.44 1.29-.788.36-.348.63-.778.83-1.29l3.01.544a5.393 5.393 0 01-1.3 2.333c-.62.66-1.39 1.176-2.33 1.545-.93.362-1.99.543-3.19.543zm24.09-16.694L1144.21 50h-3.41l-5.94-16.364h3.42l4.14 12.593h.17l4.14-12.593h3.42zm9.49 16.694c-1.61 0-3-.344-4.17-1.033-1.16-.696-2.05-1.673-2.68-2.93-.63-1.264-.94-2.745-.94-4.442 0-1.676.31-3.154.94-4.432.63-1.279 1.51-2.276 2.64-2.994 1.14-.717 2.46-1.076 3.98-1.076.93 0 1.82.153 2.69.458.86.306 1.64.785 2.33 1.439.69.653 1.23 1.502 1.63 2.546.4 1.037.6 2.297.6 3.782v1.129h-13.01v-2.386h9.89c0-.838-.17-1.58-.51-2.227a3.993 3.993 0 00-1.44-1.545c-.61-.376-1.33-.564-2.16-.564-.89 0-1.67.22-2.34.66a4.41 4.41 0 00-1.53 1.705 4.867 4.867 0 00-.54 2.269v1.864c0 1.094.2 2.024.58 2.791.39.767.93 1.353 1.63 1.758.7.398 1.51.597 2.44.597.6 0 1.15-.085 1.65-.256.5-.177.93-.44 1.29-.788.36-.348.64-.778.83-1.29l3.02.544a5.605 5.605 0 01-1.3 2.333c-.62.66-1.4 1.176-2.34 1.545-.93.362-1.99.543-3.18.543zm10.55-.33V33.636h3.08v2.6h.17c.3-.88.83-1.573 1.58-2.078.76-.511 1.62-.767 2.58-.767a13.476 13.476 0 011.35.075v3.047a6.021 6.021 0 00-.68-.117c-.33-.05-.66-.075-.98-.075-.76 0-1.43.16-2.02.48-.58.312-1.04.749-1.38 1.31-.34.554-.51 1.186-.51 1.896V50h-3.19zm13.78-2.983l-.15 1.161c-.11.853-.29 1.74-.55 2.664-.25.93-.51 1.793-.78 2.588-.26.796-.48 1.428-.65 1.897h-2.25c.09-.44.22-1.037.38-1.79.16-.746.32-1.58.48-2.504.15-.923.27-1.864.35-2.823l.11-1.193h3.06zm19.73-13.38v2.556h-8.94v-2.557h8.94zm-6.54-3.921h3.18v15.48c0 .617.1 1.082.28 1.395.19.305.42.515.71.628.3.107.63.16.97.16.26 0 .48-.017.68-.053.19-.035.34-.064.44-.085l.58 2.631c-.19.071-.45.142-.79.213a6.26 6.26 0 01-1.28.128 5.572 5.572 0 01-2.34-.447 4.01 4.01 0 01-1.76-1.45c-.45-.653-.67-1.473-.67-2.46v-16.14zm13.6 10.568V50h-3.19V28.182h3.15V36.3h.2c.38-.881.97-1.58 1.76-2.099.79-.519 1.82-.778 3.09-.778 1.12 0 2.1.231 2.94.693.84.461 1.5 1.15 1.96 2.066.47.91.7 2.046.7 3.41V50h-3.18V39.975c0-1.2-.31-2.13-.93-2.791-.62-.668-1.48-1.002-2.58-1.002-.75 0-1.43.16-2.02.48a3.46 3.46 0 00-1.4 1.406c-.33.611-.5 1.35-.5 2.216zm21.91 10.046c-1.61 0-3-.344-4.16-1.033-1.16-.696-2.05-1.673-2.69-2.93-.62-1.264-.93-2.745-.93-4.442 0-1.676.31-3.154.93-4.432.64-1.279 1.52-2.276 2.65-2.994 1.13-.717 2.46-1.076 3.98-1.076.92 0 1.82.153 2.69.458.86.306 1.64.785 2.33 1.439.69.653 1.23 1.502 1.63 2.546.4 1.037.59 2.297.59 3.782v1.129h-13v-2.386h9.88c0-.838-.17-1.58-.51-2.227a3.85 3.85 0 00-1.44-1.545c-.61-.376-1.32-.564-2.15-.564-.89 0-1.67.22-2.34.66a4.515 4.515 0 00-1.54 1.705 4.984 4.984 0 00-.53 2.269v1.864c0 1.094.19 2.024.58 2.791.39.767.93 1.353 1.63 1.758.69.398 1.51.597 2.44.597.6 0 1.15-.085 1.65-.256.49-.177.92-.44 1.29-.788.36-.348.64-.778.83-1.29l3.01.544a5.393 5.393 0 01-1.3 2.333c-.62.66-1.39 1.176-2.33 1.545-.93.362-1.99.543-3.19.543zm10.56-.33V33.636h3.08v2.6h.17c.3-.88.82-1.573 1.58-2.078.76-.511 1.61-.767 2.57-.767a13.831 13.831 0 011.36.075v3.047a5.89 5.89 0 00-.69-.117c-.32-.05-.65-.075-.98-.075-.75 0-1.42.16-2.01.48-.58.312-1.04.749-1.38 1.31a3.558 3.558 0 00-.52 1.896V50h-3.18zm17.98.33c-1.61 0-3-.344-4.17-1.033-1.15-.696-2.05-1.673-2.68-2.93-.63-1.264-.94-2.745-.94-4.442 0-1.676.31-3.154.94-4.432.63-1.279 1.51-2.276 2.64-2.994 1.14-.717 2.47-1.076 3.99-1.076.92 0 1.81.153 2.68.458a6.47 6.47 0 012.33 1.439c.69.653 1.24 1.502 1.63 2.546.4 1.037.6 2.297.6 3.782v1.129h-13.01v-2.386h9.89c0-.838-.17-1.58-.51-2.227a3.85 3.85 0 00-1.44-1.545c-.61-.376-1.33-.564-2.15-.564-.9 0-1.68.22-2.35.66a4.41 4.41 0 00-1.53 1.705c-.36.696-.53 1.452-.53 2.269v1.864c0 1.094.19 2.024.57 2.791.39.767.94 1.353 1.63 1.758.7.398 1.51.597 2.44.597.61 0 1.16-.085 1.65-.256.5-.177.93-.44 1.29-.788.36-.348.64-.778.83-1.29l3.02.544a5.497 5.497 0 01-1.3 2.333c-.62.66-1.4 1.176-2.34 1.545-.93.362-1.99.543-3.18.543zm23.26.032c-1.04 0-1.98-.192-2.82-.575a4.78 4.78 0 01-1.99-1.694c-.48-.739-.72-1.644-.72-2.717 0-.923.17-1.683.53-2.28a3.85 3.85 0 011.44-1.416c.6-.348 1.28-.611 2.02-.789.75-.177 1.51-.312 2.28-.404.98-.114 1.78-.206 2.39-.278.61-.078 1.05-.202 1.33-.372.28-.17.42-.448.42-.831v-.075c0-.93-.27-1.651-.79-2.162-.52-.512-1.3-.768-2.33-.768-1.07 0-1.91.238-2.53.714-.61.469-1.03.991-1.27 1.566l-2.99-.682c.35-.994.87-1.796 1.55-2.407a6.295 6.295 0 012.38-1.343 9.218 9.218 0 012.82-.426c.66 0 1.35.078 2.08.235.74.149 1.43.426 2.07.83.64.406 1.17.984 1.58 1.737.42.746.62 1.715.62 2.908V50h-3.11v-2.237h-.13c-.2.412-.51.817-.92 1.214-.42.398-.95.728-1.59.991-.65.263-1.42.394-2.32.394zm.69-2.557c.88 0 1.63-.174 2.26-.522.63-.348 1.11-.802 1.44-1.363.33-.568.5-1.176.5-1.822v-2.11c-.12.114-.34.22-.66.32-.32.093-.69.174-1.1.245-.41.064-.82.125-1.21.181l-.98.128a7.95 7.95 0 00-1.69.394c-.5.185-.91.451-1.21.8-.3.34-.45.795-.45 1.363 0 .788.29 1.385.87 1.79.58.397 1.33.596 2.23.596zM1296.78 50V33.636h3.08v2.6h.17c.3-.88.83-1.573 1.58-2.078.76-.511 1.62-.767 2.58-.767a13.476 13.476 0 011.35.075v3.047a5.616 5.616 0 00-.68-.117c-.33-.05-.65-.075-.98-.075-.75 0-1.42.16-2.01.48-.59.312-1.05.749-1.39 1.31-.34.554-.51 1.186-.51 1.896V50h-3.19zm17.98.33c-1.61 0-3-.344-4.16-1.033-1.16-.696-2.05-1.673-2.69-2.93-.62-1.264-.93-2.745-.93-4.442 0-1.676.31-3.154.93-4.432.64-1.279 1.52-2.276 2.65-2.994 1.13-.717 2.46-1.076 3.98-1.076.92 0 1.82.153 2.69.458.86.306 1.64.785 2.33 1.439.69.653 1.23 1.502 1.63 2.546.4 1.037.59 2.297.59 3.782v1.129h-13v-2.386h9.88c0-.838-.17-1.58-.51-2.227a3.85 3.85 0 00-1.44-1.545c-.61-.376-1.32-.564-2.15-.564-.89 0-1.67.22-2.34.66a4.515 4.515 0 00-1.54 1.705 4.984 4.984 0 00-.53 2.269v1.864c0 1.094.19 2.024.58 2.791.39.767.93 1.353 1.63 1.758.69.398 1.51.597 2.44.597.6 0 1.15-.085 1.65-.256.49-.177.92-.44 1.29-.788.36-.348.64-.778.83-1.29l3.01.544a5.393 5.393 0 01-1.3 2.333c-.62.66-1.39 1.176-2.33 1.545-.93.362-1.99.543-3.19.543zM175.403 73.631l-2.887.512a3.395 3.395 0 00-.575-1.055c-.256-.334-.604-.607-1.044-.82-.44-.213-.991-.32-1.651-.32-.902 0-1.655.203-2.259.607-.603.398-.905.913-.905 1.545 0 .547.202.987.607 1.321.405.334 1.058.607 1.96.82l2.6.597c1.505.348 2.627.884 3.366 1.609.739.724 1.108 1.665 1.108 2.823a4.29 4.29 0 01-.852 2.62c-.561.76-1.346 1.357-2.355 1.79-1.001.434-2.162.65-3.483.65-1.833 0-3.328-.39-4.485-1.172-1.158-.788-1.868-1.907-2.131-3.355l3.079-.47c.192.803.586 1.41 1.182 1.823.597.404 1.375.607 2.333.607 1.044 0 1.879-.217 2.504-.65.625-.44.937-.977.937-1.609a1.67 1.67 0 00-.575-1.289c-.376-.348-.955-.61-1.736-.788l-2.77-.607c-1.527-.348-2.657-.902-3.388-1.662-.724-.76-1.087-1.723-1.087-2.887 0-.966.27-1.811.81-2.536.54-.724 1.285-1.289 2.237-1.694.952-.412 2.042-.618 3.271-.618 1.768 0 3.16.384 4.176 1.15 1.016.76 1.687 1.78 2.013 3.058zM179.225 86V69.636h3.186V86h-3.186zm1.609-18.888c-.554 0-1.03-.185-1.428-.554-.39-.377-.586-.824-.586-1.343 0-.525.196-.973.586-1.342a2.005 2.005 0 011.428-.565c.554 0 1.026.188 1.417.565.398.37.596.817.596 1.342 0 .519-.198.966-.596 1.343a1.99 1.99 0 01-1.417.553zm12.723 25.365c-1.3 0-2.419-.17-3.356-.511-.93-.341-1.69-.792-2.28-1.353-.589-.561-1.03-1.175-1.321-1.843l2.738-1.13c.192.313.448.643.767.991.327.356.767.657 1.321.906.561.248 1.282.373 2.163.373 1.207 0 2.205-.295 2.993-.884.789-.583 1.183-1.513 1.183-2.792v-3.217h-.203a7.212 7.212 0 01-.83 1.161c-.356.426-.846.796-1.471 1.108-.625.313-1.438.469-2.439.469-1.293 0-2.458-.302-3.495-.906-1.029-.61-1.846-1.509-2.45-2.695-.596-1.193-.895-2.66-.895-4.4 0-1.74.295-3.231.884-4.474.597-1.243 1.414-2.195 2.451-2.855 1.037-.668 2.212-1.002 3.526-1.002 1.016 0 1.836.17 2.461.512.625.334 1.111.724 1.459 1.171.356.448.629.842.821 1.183h.234v-2.653h3.122v16.726c0 1.407-.327 2.56-.98 3.463-.654.902-1.538 1.57-2.653 2.002-1.108.434-2.358.65-3.75.65zm-.032-9.364c.916 0 1.69-.213 2.322-.64.64-.433 1.122-1.05 1.449-1.853.334-.81.501-1.78.501-2.908 0-1.101-.163-2.07-.49-2.909-.327-.838-.806-1.491-1.438-1.96-.632-.476-1.414-.714-2.344-.714-.959 0-1.758.249-2.397.746-.639.49-1.122 1.158-1.449 2.003-.32.845-.479 1.79-.479 2.834 0 1.072.163 2.013.49 2.823.326.81.809 1.442 1.448 1.896.647.455 1.442.682 2.387.682zm14.872-6.829V86h-3.185V69.636h3.057V72.3h.203a4.677 4.677 0 011.768-2.088c.81-.526 1.829-.789 3.058-.789 1.115 0 2.091.235 2.929.703.838.462 1.488 1.151 1.95 2.067.461.916.692 2.05.692 3.399V86h-3.185V75.975c0-1.186-.309-2.113-.927-2.78-.618-.675-1.467-1.012-2.546-1.012-.739 0-1.396.16-1.971.479-.568.32-1.019.788-1.353 1.406-.327.611-.49 1.35-.49 2.216zm27.006-2.653l-2.887.512a3.395 3.395 0 00-.575-1.055c-.256-.334-.604-.607-1.044-.82-.44-.213-.991-.32-1.651-.32-.902 0-1.655.203-2.259.607-.603.398-.905.913-.905 1.545 0 .547.202.987.607 1.321.405.334 1.058.607 1.96.82l2.6.597c1.505.348 2.627.884 3.366 1.609.739.724 1.108 1.665 1.108 2.823a4.29 4.29 0 01-.852 2.62c-.561.76-1.346 1.357-2.355 1.79-1.001.434-2.162.65-3.483.65-1.833 0-3.328-.39-4.485-1.172-1.158-.788-1.868-1.907-2.131-3.355l3.079-.47c.192.803.586 1.41 1.182 1.823.597.404 1.375.607 2.333.607 1.044 0 1.879-.217 2.504-.65.625-.44.937-.977.937-1.609a1.67 1.67 0 00-.575-1.289c-.376-.348-.955-.61-1.736-.788l-2.77-.607c-1.527-.348-2.657-.902-3.388-1.662-.724-.76-1.087-1.723-1.087-2.887 0-.966.27-1.811.81-2.536.54-.724 1.285-1.289 2.237-1.694.952-.412 2.042-.618 3.271-.618 1.768 0 3.16.384 4.176 1.15 1.016.76 1.687 1.78 2.013 3.058zm19.4-3.995v2.557h-8.938v-2.557h8.938zm-6.541-3.92h3.185v15.48c0 .617.093 1.082.277 1.395.185.305.423.515.714.629.299.106.622.16.97.16.255 0 .479-.018.671-.054.192-.035.341-.064.447-.085l.576 2.631a5.379 5.379 0 01-.789.213 6.239 6.239 0 01-1.278.128 5.609 5.609 0 01-2.344-.447 4.026 4.026 0 01-1.758-1.45c-.447-.653-.671-1.473-.671-2.46v-16.14zm13.602 10.568V86h-3.186V64.182h3.143V72.3h.203a4.7 4.7 0 011.757-2.099c.789-.518 1.819-.778 3.09-.778 1.122 0 2.102.231 2.94.693.845.461 1.499 1.15 1.96 2.067.469.909.704 2.045.704 3.409V86h-3.186V75.975c0-1.2-.309-2.13-.927-2.791-.618-.668-1.477-1.001-2.578-1.001-.753 0-1.427.16-2.024.479a3.453 3.453 0 00-1.395 1.406c-.334.611-.501 1.35-.501 2.216zm19.623 10.078c-1.037 0-1.974-.191-2.812-.575a4.737 4.737 0 01-1.992-1.694c-.483-.739-.725-1.644-.725-2.717 0-.923.178-1.683.533-2.28a3.927 3.927 0 011.438-1.416 7.526 7.526 0 012.024-.789 20.149 20.149 0 012.28-.404l2.386-.277c.611-.079 1.055-.203 1.332-.373.277-.17.416-.448.416-.831v-.075c0-.93-.263-1.651-.789-2.162-.518-.512-1.292-.768-2.322-.768-1.073 0-1.918.238-2.536.714-.61.469-1.033.991-1.267 1.566l-2.994-.682c.355-.994.874-1.796 1.555-2.407a6.31 6.31 0 012.376-1.343 9.275 9.275 0 012.823-.426c.654 0 1.346.078 2.078.235a6.08 6.08 0 012.066.83c.647.406 1.176.984 1.588 1.737.412.746.618 1.715.618 2.909V86h-3.111v-2.237h-.128c-.206.412-.515.816-.927 1.214-.412.398-.941.728-1.587.991s-1.421.394-2.323.394zm.693-2.557c.881 0 1.633-.174 2.258-.522.632-.348 1.112-.802 1.439-1.363.333-.568.5-1.176.5-1.822v-2.11c-.113.114-.333.22-.66.32-.32.093-.686.174-1.098.245-.411.064-.813.125-1.203.181-.391.05-.718.093-.98.128a7.888 7.888 0 00-1.694.394c-.505.185-.909.451-1.215.8-.298.34-.447.795-.447 1.363 0 .788.291 1.385.873 1.79.583.397 1.325.596 2.227.596zm19.264-14.169v2.557h-8.938v-2.557h8.938zm-6.541-3.92h3.185v15.48c0 .617.092 1.082.277 1.395.185.305.423.515.714.629.298.106.621.16.969.16.256 0 .48-.018.671-.054.192-.035.341-.064.448-.085l.575 2.631a5.324 5.324 0 01-.788.213 6.241 6.241 0 01-1.279.128 5.604 5.604 0 01-2.343-.447 4.015 4.015 0 01-1.758-1.45c-.448-.653-.671-1.473-.671-2.46v-16.14zm25.642 3.92v2.557h-8.938v-2.557h8.938zm-6.541-3.92h3.186v15.48c0 .617.092 1.082.277 1.395.184.305.422.515.713.629.299.106.622.16.97.16.256 0 .479-.018.671-.054.192-.035.341-.064.447-.085l.576 2.631a5.379 5.379 0 01-.789.213 6.239 6.239 0 01-1.278.128 5.612 5.612 0 01-2.344-.447 4.026 4.026 0 01-1.758-1.45c-.447-.653-.671-1.473-.671-2.46v-16.14zm13.602 10.568V86h-3.185V64.182h3.142V72.3h.203a4.698 4.698 0 011.758-2.099c.788-.518 1.818-.778 3.089-.778 1.122 0 2.102.231 2.94.693.846.461 1.499 1.15 1.961 2.067.468.909.703 2.045.703 3.409V86h-3.186V75.975c0-1.2-.309-2.13-.926-2.791-.618-.668-1.478-1.001-2.579-1.001-.752 0-1.427.16-2.024.479a3.459 3.459 0 00-1.395 1.406c-.334.611-.501 1.35-.501 2.216zM342.468 86V69.636h3.185V86h-3.185zm1.608-18.888c-.554 0-1.03-.185-1.427-.554-.391-.377-.586-.824-.586-1.343 0-.525.195-.973.586-1.342a2.001 2.001 0 011.427-.565c.554 0 1.026.188 1.417.565.398.37.597.817.597 1.342 0 .519-.199.966-.597 1.343a1.99 1.99 0 01-1.417.553zm18.124 6.52l-2.887.51a3.419 3.419 0 00-.575-1.054c-.256-.334-.604-.607-1.044-.82-.44-.213-.991-.32-1.651-.32-.902 0-1.655.203-2.259.607-.604.398-.905.913-.905 1.545 0 .547.202.987.607 1.321.405.334 1.058.607 1.96.82l2.599.597c1.506.348 2.628.884 3.367 1.609.739.724 1.108 1.665 1.108 2.823a4.29 4.29 0 01-.852 2.62c-.561.76-1.346 1.357-2.355 1.79-1.001.434-2.162.65-3.483.65-1.833 0-3.328-.39-4.486-1.172-1.157-.788-1.867-1.907-2.13-3.355l3.079-.47c.191.803.586 1.41 1.182 1.823.597.404 1.374.607 2.333.607 1.044 0 1.879-.217 2.504-.65.625-.44.937-.977.937-1.609a1.67 1.67 0 00-.575-1.289c-.376-.348-.955-.61-1.736-.788l-2.77-.607c-1.527-.348-2.657-.902-3.388-1.662-.725-.76-1.087-1.723-1.087-2.887 0-.966.27-1.811.81-2.536.54-.724 1.285-1.289 2.237-1.694.952-.412 2.042-.618 3.271-.618 1.768 0 3.16.384 4.176 1.15 1.015.76 1.687 1.78 2.013 3.058zm14.947 2.652V86h-3.185V64.182h3.142V72.3h.203a4.698 4.698 0 011.758-2.099c.788-.518 1.818-.778 3.089-.778 1.122 0 2.102.231 2.94.693.846.461 1.499 1.15 1.961 2.067.468.909.703 2.045.703 3.409V86h-3.186V75.975c0-1.2-.309-2.13-.926-2.791-.618-.668-1.478-1.001-2.579-1.001-.752 0-1.427.16-2.024.479a3.459 3.459 0 00-1.395 1.406c-.334.611-.501 1.35-.501 2.216zm19.624 10.078c-1.037 0-1.975-.191-2.813-.575a4.737 4.737 0 01-1.992-1.694c-.483-.739-.725-1.644-.725-2.717 0-.923.178-1.683.533-2.28a3.935 3.935 0 011.438-1.416 7.52 7.52 0 012.025-.789 20.092 20.092 0 012.279-.404l2.387-.277c.61-.079 1.054-.203 1.331-.373.277-.17.416-.448.416-.831v-.075c0-.93-.263-1.651-.788-2.162-.519-.512-1.293-.768-2.323-.768-1.072 0-1.918.238-2.535.714-.611.469-1.034.991-1.268 1.566l-2.994-.682c.355-.994.874-1.796 1.556-2.407a6.306 6.306 0 012.375-1.343 9.275 9.275 0 012.823-.426c.654 0 1.346.078 2.078.235a6.098 6.098 0 012.067.83c.646.406 1.175.984 1.587 1.737.412.746.618 1.715.618 2.909V86h-3.111v-2.237h-.128c-.206.412-.515.816-.927 1.214-.412.398-.941.728-1.587.991s-1.42.394-2.322.394zm.692-2.557c.881 0 1.634-.174 2.259-.522.632-.348 1.111-.802 1.438-1.363a3.535 3.535 0 00.501-1.822v-2.11c-.114.114-.334.22-.661.32-.32.093-.685.174-1.097.245-.412.064-.814.125-1.204.181-.391.05-.717.093-.98.128a7.888 7.888 0 00-1.694.394c-.504.185-.909.451-1.215.8-.298.34-.447.795-.447 1.363 0 .788.291 1.385.874 1.79.582.397 1.324.596 2.226.596zm23.888-10.174l-2.887.512a3.422 3.422 0 00-.576-1.055c-.255-.334-.603-.607-1.044-.82-.44-.213-.99-.32-1.651-.32-.902 0-1.655.203-2.259.607-.603.398-.905.913-.905 1.545 0 .547.202.987.607 1.321.405.334 1.058.607 1.96.82l2.6.597c1.506.348 2.628.884 3.366 1.609.739.724 1.108 1.665 1.108 2.823a4.29 4.29 0 01-.852 2.62c-.561.76-1.346 1.357-2.354 1.79-1.002.434-2.163.65-3.484.65-1.832 0-3.327-.39-4.485-1.172-1.158-.788-1.868-1.907-2.131-3.355l3.079-.47c.192.803.586 1.41 1.183 1.823.596.404 1.374.607 2.333.607 1.044 0 1.878-.217 2.503-.65.625-.44.938-.977.938-1.609a1.67 1.67 0 00-.576-1.289c-.376-.348-.955-.61-1.736-.788l-2.77-.607c-1.527-.348-2.656-.902-3.388-1.662-.724-.76-1.086-1.723-1.086-2.887 0-.966.269-1.811.809-2.536.54-.724 1.286-1.289 2.237-1.694.952-.412 2.042-.618 3.271-.618 1.769 0 3.161.384 4.176 1.15 1.016.76 1.687 1.78 2.014 3.058zm17.887 12.689c-1.321 0-2.5-.338-3.537-1.012-1.03-.682-1.84-1.652-2.429-2.909-.583-1.264-.874-2.78-.874-4.549 0-1.768.295-3.281.884-4.538.597-1.257 1.414-2.22 2.451-2.887 1.037-.668 2.212-1.002 3.526-1.002 1.016 0 1.832.17 2.45.512.625.334 1.108.724 1.449 1.171.348.448.618.842.81 1.183h.192v-8.107h3.185V86h-3.111v-2.546h-.266a8.466 8.466 0 01-.831 1.193c-.355.447-.845.838-1.47 1.172-.625.334-1.435.5-2.429.5zm.703-2.717c.916 0 1.69-.241 2.322-.724.64-.49 1.122-1.169 1.449-2.035.334-.867.501-1.875.501-3.026 0-1.136-.163-2.13-.49-2.983-.327-.852-.806-1.516-1.438-1.992-.632-.476-1.414-.714-2.344-.714-.959 0-1.758.249-2.397.746-.639.497-1.122 1.175-1.449 2.035-.32.86-.479 1.829-.479 2.908 0 1.094.163 2.078.49 2.951.326.874.809 1.566 1.449 2.078.646.504 1.441.756 2.386.756zm19.003 2.727c-1.612 0-3.001-.344-4.166-1.033-1.157-.696-2.052-1.673-2.684-2.93-.625-1.264-.938-2.745-.938-4.442 0-1.676.313-3.154.938-4.432.632-1.278 1.513-2.276 2.642-2.994 1.136-.717 2.464-1.076 3.984-1.076.923 0 1.818.153 2.685.458a6.507 6.507 0 012.333 1.439c.689.653 1.232 1.502 1.63 2.546.398 1.037.596 2.297.596 3.782v1.129h-13.007v-2.386h9.886c0-.838-.17-1.58-.511-2.227a3.868 3.868 0 00-1.439-1.545c-.61-.376-1.328-.564-2.152-.564-.894 0-1.676.22-2.343.66a4.427 4.427 0 00-1.534 1.705 4.923 4.923 0 00-.533 2.269v1.864c0 1.094.192 2.024.575 2.791.391.768.934 1.353 1.63 1.758.696.398 1.509.597 2.44.597.604 0 1.154-.085 1.651-.256.497-.177.927-.44 1.289-.788a3.43 3.43 0 00.831-1.29l3.015.544a5.455 5.455 0 01-1.3 2.333c-.618.66-1.395 1.176-2.333 1.545-.93.362-1.992.543-3.185.543zm17.448 0c-1.584 0-2.948-.358-4.091-1.076-1.137-.724-2.01-1.722-2.621-2.993-.611-1.272-.916-2.728-.916-4.368 0-1.662.312-3.129.937-4.4.625-1.278 1.506-2.276 2.642-2.994 1.137-.717 2.475-1.076 4.017-1.076 1.242 0 2.35.231 3.323.693.973.454 1.758 1.094 2.355 1.917.604.824.962 1.787 1.076 2.888h-3.1c-.171-.768-.561-1.428-1.172-1.982-.604-.554-1.414-.831-2.429-.831-.888 0-1.666.234-2.333.703-.661.462-1.176 1.122-1.545 1.982-.369.852-.554 1.86-.554 3.025 0 1.193.181 2.223.543 3.09.363.866.874 1.537 1.534 2.013.668.476 1.453.714 2.355.714.604 0 1.15-.11 1.64-.33.498-.228.913-.55 1.247-.97.341-.419.579-.923.714-1.513h3.1c-.114 1.059-.458 2.003-1.034 2.834-.575.831-1.345 1.485-2.311 1.96-.959.476-2.085.714-3.377.714zM486.52 86V69.636h3.079v2.6h.171a3.952 3.952 0 011.576-2.078c.76-.511 1.62-.767 2.578-.767a13.582 13.582 0 011.353.075v3.047a5.682 5.682 0 00-.681-.117 6.52 6.52 0 00-.981-.075c-.752 0-1.424.16-2.013.48a3.565 3.565 0 00-1.385 1.31c-.341.554-.511 1.186-.511 1.896V86h-3.186zm17.981.33c-1.613 0-3.001-.344-4.166-1.033-1.158-.696-2.053-1.673-2.685-2.93-.625-1.264-.937-2.745-.937-4.442 0-1.676.312-3.154.937-4.432.632-1.278 1.513-2.276 2.642-2.994 1.137-.717 2.465-1.076 3.985-1.076.923 0 1.818.153 2.684.458a6.502 6.502 0 012.334 1.439c.688.653 1.232 1.502 1.63 2.546.397 1.037.596 2.297.596 3.782v1.129h-13.008v-2.386h9.887c0-.838-.171-1.58-.512-2.227a3.866 3.866 0 00-1.438-1.545c-.611-.376-1.328-.564-2.152-.564-.895 0-1.676.22-2.344.66a4.435 4.435 0 00-1.534 1.705 4.922 4.922 0 00-.532 2.269v1.864c0 1.094.191 2.024.575 2.791.391.768.934 1.353 1.63 1.758.696.398 1.509.597 2.439.597a5.07 5.07 0 001.652-.256c.497-.177.927-.44 1.289-.788a3.43 3.43 0 00.831-1.29l3.015.544a5.465 5.465 0 01-1.3 2.333c-.618.66-1.396 1.176-2.333 1.545-.93.362-1.992.543-3.185.543zm15.316.032c-1.036 0-1.974-.191-2.812-.575a4.737 4.737 0 01-1.992-1.694c-.483-.739-.725-1.644-.725-2.717 0-.923.178-1.683.533-2.28a3.935 3.935 0 011.438-1.416 7.526 7.526 0 012.024-.789 20.149 20.149 0 012.28-.404l2.387-.277c.61-.079 1.054-.203 1.331-.373.277-.17.416-.448.416-.831v-.075c0-.93-.263-1.651-.789-2.162-.518-.512-1.292-.768-2.322-.768-1.073 0-1.918.238-2.536.714-.61.469-1.033.991-1.267 1.566l-2.994-.682c.355-.994.874-1.796 1.555-2.407a6.31 6.31 0 012.376-1.343 9.275 9.275 0 012.823-.426c.654 0 1.346.078 2.078.235a6.106 6.106 0 012.067.83c.646.406 1.175.984 1.587 1.737.412.746.618 1.715.618 2.909V86h-3.111v-2.237h-.128c-.206.412-.515.816-.927 1.214-.412.398-.941.728-1.587.991s-1.421.394-2.323.394zm.693-2.557c.881 0 1.633-.174 2.258-.522.633-.348 1.112-.802 1.439-1.363.333-.568.5-1.176.5-1.822v-2.11c-.113.114-.333.22-.66.32-.32.093-.685.174-1.097.245-.412.064-.814.125-1.204.181-.391.05-.718.093-.98.128a7.888 7.888 0 00-1.694.394c-.505.185-.909.451-1.215.8-.298.34-.447.795-.447 1.363 0 .788.291 1.385.873 1.79.583.397 1.325.596 2.227.596zm23.888-10.174l-2.888.512a3.395 3.395 0 00-.575-1.055c-.255-.334-.604-.607-1.044-.82-.44-.213-.991-.32-1.651-.32-.902 0-1.655.203-2.259.607-.603.398-.905.913-.905 1.545 0 .547.202.987.607 1.321.405.334 1.058.607 1.96.82l2.6.597c1.505.348 2.628.884 3.366 1.609.739.724 1.108 1.665 1.108 2.823a4.29 4.29 0 01-.852 2.62c-.561.76-1.346 1.357-2.355 1.79-1.001.434-2.162.65-3.483.65-1.833 0-3.328-.39-4.485-1.172-1.158-.788-1.868-1.907-2.131-3.355l3.079-.47c.192.803.586 1.41 1.182 1.823.597.404 1.375.607 2.334.607 1.044 0 1.878-.217 2.503-.65.625-.44.938-.977.938-1.609a1.67 1.67 0 00-.576-1.289c-.376-.348-.955-.61-1.736-.788l-2.77-.607c-1.527-.348-2.656-.902-3.388-1.662-.724-.76-1.087-1.723-1.087-2.887 0-.966.27-1.811.81-2.536.54-.724 1.286-1.289 2.237-1.694.952-.412 2.042-.618 3.271-.618 1.768 0 3.16.384 4.176 1.15 1.016.76 1.687 1.78 2.014 3.058zm10.874 12.7c-1.612 0-3.001-.345-4.165-1.034-1.158-.696-2.053-1.673-2.685-2.93-.625-1.264-.938-2.745-.938-4.442 0-1.676.313-3.154.938-4.432.632-1.278 1.513-2.276 2.642-2.994 1.136-.717 2.464-1.076 3.984-1.076a8.02 8.02 0 012.685.458 6.507 6.507 0 012.333 1.439c.689.653 1.232 1.502 1.63 2.546.398 1.037.597 2.297.597 3.782v1.129h-13.008v-2.386h9.886c0-.838-.17-1.58-.511-2.227a3.873 3.873 0 00-1.438-1.545c-.611-.376-1.329-.564-2.152-.564-.895 0-1.677.22-2.344.66a4.427 4.427 0 00-1.534 1.705 4.923 4.923 0 00-.533 2.269v1.864c0 1.094.192 2.024.575 2.791.391.768.934 1.353 1.63 1.758.696.398 1.51.597 2.44.597.604 0 1.154-.085 1.651-.256.497-.177.927-.44 1.289-.788.363-.348.64-.778.831-1.29l3.015.544a5.455 5.455 0 01-1.3 2.333c-.617.66-1.395 1.176-2.333 1.545-.93.362-1.992.543-3.185.543zm16.681-.011c-1.321 0-2.5-.338-3.537-1.012-1.03-.682-1.84-1.652-2.429-2.909-.583-1.264-.874-2.78-.874-4.549 0-1.768.295-3.281.884-4.538.597-1.257 1.414-2.22 2.451-2.887 1.037-.668 2.212-1.002 3.526-1.002 1.016 0 1.832.17 2.45.512.625.334 1.108.724 1.449 1.171.348.448.618.842.81 1.183h.191v-8.107h3.186V86h-3.111v-2.546h-.266a8.466 8.466 0 01-.831 1.193c-.355.447-.845.838-1.47 1.172-.625.334-1.435.5-2.429.5zm.703-2.717c.916 0 1.69-.241 2.322-.724.639-.49 1.122-1.169 1.449-2.035.334-.867.501-1.875.501-3.026 0-1.136-.164-2.13-.49-2.983-.327-.852-.806-1.516-1.439-1.992-.632-.476-1.413-.714-2.343-.714-.959 0-1.758.249-2.397.746-.64.497-1.122 1.175-1.449 2.035-.32.86-.48 1.829-.48 2.908 0 1.094.164 2.078.49 2.951.327.874.81 1.566 1.449 2.078.647.504 1.442.756 2.387.756zM592.546 86V69.636h3.185V86h-3.185zm1.608-18.888c-.554 0-1.03-.185-1.427-.554-.391-.377-.586-.824-.586-1.343 0-.525.195-.973.586-1.342a2.001 2.001 0 011.427-.565c.554 0 1.027.188 1.417.565.398.37.597.817.597 1.342 0 .519-.199.966-.597 1.343-.39.369-.863.553-1.417.553zm9.048 9.172V86h-3.186V69.636h3.058V72.3h.202a4.68 4.68 0 011.769-2.088c.809-.526 1.829-.789 3.057-.789 1.115 0 2.092.235 2.93.703.838.462 1.488 1.151 1.95 2.067.461.916.692 2.05.692 3.399V86h-3.185V75.975c0-1.186-.309-2.113-.927-2.78-.618-.675-1.467-1.012-2.546-1.012-.739 0-1.396.16-1.971.479-.568.32-1.019.788-1.353 1.406-.327.611-.49 1.35-.49 2.216zM625.885 86V69.636h3.079v2.6h.171a3.957 3.957 0 011.576-2.078c.76-.511 1.62-.767 2.579-.767a13.646 13.646 0 011.353.075v3.047a5.748 5.748 0 00-.682-.117 6.517 6.517 0 00-.98-.075c-.753 0-1.424.16-2.014.48a3.565 3.565 0 00-1.385 1.31c-.341.554-.511 1.186-.511 1.896V86h-3.186zm17.981.33c-1.612 0-3.001-.344-4.166-1.033-1.157-.696-2.052-1.673-2.684-2.93-.625-1.264-.938-2.745-.938-4.442 0-1.676.313-3.154.938-4.432.632-1.278 1.512-2.276 2.642-2.994 1.136-.717 2.464-1.076 3.984-1.076.923 0 1.818.153 2.685.458a6.507 6.507 0 012.333 1.439c.689.653 1.232 1.502 1.63 2.546.398 1.037.596 2.297.596 3.782v1.129h-13.007v-2.386h9.886c0-.838-.171-1.58-.511-2.227a3.868 3.868 0 00-1.439-1.545c-.61-.376-1.328-.564-2.152-.564-.895 0-1.676.22-2.343.66a4.427 4.427 0 00-1.534 1.705 4.91 4.91 0 00-.533 2.269v1.864c0 1.094.192 2.024.575 2.791.391.768.934 1.353 1.63 1.758.696.398 1.509.597 2.44.597.603 0 1.154-.085 1.651-.256.497-.177.927-.44 1.289-.788a3.43 3.43 0 00.831-1.29l3.015.544a5.465 5.465 0 01-1.3 2.333c-.618.66-1.395 1.176-2.333 1.545-.93.362-1.992.543-3.185.543zm17.447 0c-1.583 0-2.947-.358-4.091-1.076-1.136-.724-2.009-1.722-2.62-2.993-.611-1.272-.916-2.728-.916-4.368 0-1.662.312-3.129.937-4.4.625-1.278 1.506-2.276 2.642-2.994 1.136-.717 2.475-1.076 4.016-1.076 1.243 0 2.351.231 3.324.693.973.454 1.758 1.094 2.355 1.917.603.824.962 1.787 1.076 2.888h-3.1c-.171-.768-.562-1.428-1.172-1.982-.604-.554-1.414-.831-2.429-.831-.888 0-1.666.234-2.333.703-.661.462-1.176 1.122-1.545 1.982-.369.852-.554 1.86-.554 3.025 0 1.193.181 2.223.543 3.09.362.866.874 1.537 1.534 2.013.668.476 1.453.714 2.355.714.603 0 1.15-.11 1.64-.33.497-.228.913-.55 1.247-.97.341-.419.579-.923.714-1.513h3.1c-.114 1.059-.458 2.003-1.034 2.834-.575.831-1.346 1.485-2.311 1.96-.959.476-2.085.714-3.378.714zm17.182 0c-1.613 0-3.001-.344-4.166-1.033-1.157-.696-2.052-1.673-2.684-2.93-.625-1.264-.938-2.745-.938-4.442 0-1.676.313-3.154.938-4.432.632-1.278 1.512-2.276 2.642-2.994 1.136-.717 2.464-1.076 3.984-1.076.923 0 1.818.153 2.685.458a6.507 6.507 0 012.333 1.439c.689.653 1.232 1.502 1.63 2.546.397 1.037.596 2.297.596 3.782v1.129h-13.008v-2.386h9.887c0-.838-.171-1.58-.512-2.227a3.859 3.859 0 00-1.438-1.545c-.611-.376-1.328-.564-2.152-.564-.895 0-1.676.22-2.343.66a4.438 4.438 0 00-1.535 1.705 4.922 4.922 0 00-.532 2.269v1.864c0 1.094.192 2.024.575 2.791.391.768.934 1.353 1.63 1.758.696.398 1.509.597 2.44.597.603 0 1.154-.085 1.651-.256.497-.177.927-.44 1.289-.788a3.43 3.43 0 00.831-1.29l3.015.544a5.465 5.465 0 01-1.3 2.333c-.618.66-1.395 1.176-2.333 1.545-.93.362-1.992.543-3.185.543zm13.74-10.046V86h-3.185V69.636h3.057V72.3h.202a4.68 4.68 0 011.769-2.088c.81-.526 1.829-.789 3.057-.789 1.116 0 2.092.235 2.93.703.838.462 1.488 1.151 1.95 2.067.461.916.692 2.05.692 3.399V86h-3.185V75.975c0-1.186-.309-2.113-.927-2.78-.618-.675-1.467-1.012-2.546-1.012-.739 0-1.396.16-1.971.479-.568.32-1.019.788-1.353 1.406-.327.611-.49 1.35-.49 2.216zm22.383-6.648v2.557h-8.938v-2.557h8.938zm-6.541-3.92h3.185v15.48c0 .617.092 1.082.277 1.395.185.305.422.515.714.629.298.106.621.16.969.16.256 0 .48-.018.671-.054.192-.035.341-.064.448-.085l.575 2.631a5.36 5.36 0 01-.788.213 6.241 6.241 0 01-1.279.128 5.604 5.604 0 01-2.343-.447 4.015 4.015 0 01-1.758-1.45c-.448-.653-.671-1.473-.671-2.46v-16.14zm20.017 26.42c-.476 0-.909-.039-1.299-.117-.391-.07-.682-.149-.874-.234l.767-2.61c.582.156 1.101.223 1.555.202a1.862 1.862 0 001.204-.511c.355-.32.668-.842.938-1.566l.394-1.087-5.987-16.577h3.409l4.144 12.7h.17l4.145-12.7h3.419l-6.743 18.548c-.313.852-.71 1.573-1.193 2.163a4.638 4.638 0 01-1.726 1.342c-.668.298-1.442.447-2.323.447zm21.475-5.806c-1.612 0-3.001-.344-4.166-1.033-1.157-.696-2.052-1.673-2.684-2.93-.625-1.264-.938-2.745-.938-4.442 0-1.676.313-3.154.938-4.432.632-1.278 1.513-2.276 2.642-2.994 1.136-.717 2.464-1.076 3.984-1.076.923 0 1.818.153 2.685.458a6.507 6.507 0 012.333 1.439c.689.653 1.232 1.502 1.63 2.546.398 1.037.596 2.297.596 3.782v1.129h-13.007v-2.386h9.886c0-.838-.17-1.58-.511-2.227a3.868 3.868 0 00-1.439-1.545c-.61-.376-1.328-.564-2.152-.564-.894 0-1.676.22-2.343.66a4.427 4.427 0 00-1.534 1.705 4.923 4.923 0 00-.533 2.269v1.864c0 1.094.192 2.024.575 2.791.391.768.934 1.353 1.63 1.758.696.398 1.509.597 2.44.597.604 0 1.154-.085 1.651-.256.497-.177.927-.44 1.289-.788a3.43 3.43 0 00.831-1.29l3.015.544a5.455 5.455 0 01-1.3 2.333c-.618.66-1.395 1.176-2.333 1.545-.93.362-1.992.543-3.185.543zm15.317.032c-1.037 0-1.975-.191-2.813-.575a4.737 4.737 0 01-1.992-1.694c-.483-.739-.724-1.644-.724-2.717 0-.923.177-1.683.532-2.28a3.93 3.93 0 011.439-1.416 7.5 7.5 0 012.024-.789 20.07 20.07 0 012.28-.404l2.386-.277c.611-.079 1.055-.203 1.332-.373.277-.17.415-.448.415-.831v-.075c0-.93-.263-1.651-.788-2.162-.519-.512-1.293-.768-2.323-.768-1.072 0-1.917.238-2.535.714-.611.469-1.034.991-1.268 1.566l-2.994-.682c.356-.994.874-1.796 1.556-2.407a6.31 6.31 0 012.376-1.343 9.265 9.265 0 012.823-.426c.653 0 1.346.078 2.077.235a6.09 6.09 0 012.067.83c.646.406 1.175.984 1.587 1.737.412.746.618 1.715.618 2.909V86h-3.111v-2.237h-.128c-.205.412-.514.816-.926 1.214-.412.398-.941.728-1.588.991-.646.263-1.42.394-2.322.394zm.692-2.557c.881 0 1.634-.174 2.259-.522.632-.348 1.111-.802 1.438-1.363a3.535 3.535 0 00.501-1.822v-2.11c-.114.114-.334.22-.661.32a10.23 10.23 0 01-1.097.245c-.412.064-.813.125-1.204.181-.391.05-.717.093-.98.128a7.888 7.888 0 00-1.694.394c-.504.185-.909.451-1.214.8-.299.34-.448.795-.448 1.363 0 .788.291 1.385.874 1.79.582.397 1.324.596 2.226.596zM777.204 86V69.636h3.079v2.6h.17a3.953 3.953 0 011.577-2.078c.76-.511 1.619-.767 2.578-.767a13.614 13.614 0 011.353.075v3.047a5.709 5.709 0 00-.682-.117 6.507 6.507 0 00-.98-.075c-.753 0-1.424.16-2.013.48a3.551 3.551 0 00-1.385 1.31c-.341.554-.512 1.186-.512 1.896V86h-3.185zm23.776-12.369l-2.887.512a3.422 3.422 0 00-.576-1.055c-.255-.334-.603-.607-1.044-.82-.44-.213-.991-.32-1.651-.32-.902 0-1.655.203-2.259.607-.603.398-.905.913-.905 1.545 0 .547.202.987.607 1.321.405.334 1.058.607 1.96.82l2.6.597c1.505.348 2.628.884 3.366 1.609.739.724 1.108 1.665 1.108 2.823a4.29 4.29 0 01-.852 2.62c-.561.76-1.346 1.357-2.354 1.79-1.002.434-2.163.65-3.484.65-1.833 0-3.328-.39-4.485-1.172-1.158-.788-1.868-1.907-2.131-3.355l3.079-.47c.192.803.586 1.41 1.182 1.823.597.404 1.375.607 2.334.607 1.044 0 1.878-.217 2.503-.65.625-.44.938-.977.938-1.609a1.67 1.67 0 00-.576-1.289c-.376-.348-.955-.61-1.736-.788l-2.77-.607c-1.527-.348-2.656-.902-3.388-1.662-.724-.76-1.087-1.723-1.087-2.887 0-.966.27-1.811.81-2.536.54-.724 1.286-1.289 2.237-1.694.952-.412 2.042-.618 3.271-.618 1.768 0 3.16.384 4.176 1.15 1.016.76 1.687 1.78 2.014 3.058zm5.92 12.571a2.068 2.068 0 01-1.502-.617 2.062 2.062 0 01-.628-1.513c0-.583.209-1.08.628-1.492a2.05 2.05 0 011.502-.628c.583 0 1.083.21 1.502.628.419.412.629.91.629 1.492 0 .39-.1.749-.298 1.076a2.21 2.21 0 01-.767.767 2.04 2.04 0 01-1.066.287z" fill="#000"/><path d="M0 10C0 4.477 4.477 0 10 0h111v121H10c-5.523 0-10-4.477-10-10V10z" fill="#0046AD"/><path d="M0 10C0 4.477 4.477 0 10 0h111v121H10c-5.523 0-10-4.477-10-10V10z" fill="#000" fill-opacity=".2"/><path fill-rule="evenodd" clip-rule="evenodd" d="M61 30c17.094 0 31 13.906 31 31S78.094 92 61 92 30 78.094 30 61s13.906-31 31-31zm4.977 23.102H58.21l-3.66 17.296a23.35 23.35 0 00-.316 1.908c-.07.588-.105 1.127-.105 1.62 0 1.14.149 2.114.448 2.922.299.809.706 1.475 1.224 2 .517.526 1.13.914 1.83 1.16a6.89 6.89 0 002.264.366 6.79 6.79 0 002.079-.329 5.409 5.409 0 001.844-1.013 5.633 5.633 0 001.355-1.723c.359-.693.575-1.523.645-2.488a6.306 6.306 0 01-.631.237c-.23.07-.599.105-1.108.105-.752 0-1.305-.145-1.658-.433-.35-.292-.526-.812-.526-1.567 0-.283.014-.566.04-.857.025-.288.082-.585.17-.881l3.872-18.323zm-2.424-11.478c-.595 0-1.153.113-1.671.342a4.34 4.34 0 00-2.264 2.305 4.248 4.248 0 00-.33 1.671c0 .599.111 1.154.33 1.672.22.517.523.965.908 1.342a4.318 4.318 0 003.027 1.224c.596 0 1.154-.11 1.672-.329a4.475 4.475 0 001.369-.895 4.18 4.18 0 00.935-1.342 4.118 4.118 0 00.343-1.672c0-.598-.116-1.153-.343-1.67a4.495 4.495 0 00-2.305-2.305 4.083 4.083 0 00-1.67-.343z" fill="#fff"/></svg>