<svg width="157" height="90" fill="none" xmlns="http://www.w3.org/2000/svg"><path fill-rule="evenodd" clip-rule="evenodd" d="M126.113 77.321c-1.464.784-2.98 1.591-5.034 1.797-2.561.253-4.896-.345-6.958-.88-1.35-.347-2.632-.675-3.748-.696-1.354-.027-2.779.733-4.263 1.54-1.275.697-2.593 1.414-4.084 1.75-.681.15-1.433.217-2.205.217-2.802 0-5.933-.843-7.591-1.361V76.62c1.78.63 6.48 1.971 9.147 1.366 1.088-.241 2.171-.831 3.318-1.456h.002l.014-.009c1.757-.951 3.566-1.93 5.721-1.891 1.461.031 2.902.4 4.425.79l.027.008c1.907.489 3.877.993 5.905.789 1.47-.143 2.61-.752 3.93-1.461l.018-.01c1.802-.963 3.852-2.06 6.944-1.98 2.7.055 3.852.578 4.865 1.04.923.42 1.722.784 4.093.824 2.044.043 2.757-.438 3.828-1.161l.003-.003.005-.003c1.31-.879 2.945-1.976 6.894-2.222v2.922c-3.008.213-4.101.941-5.253 1.717-1.195.807-2.557 1.706-5.532 1.662-2.972-.054-4.181-.601-5.247-1.084l-.01-.004-.005-.002c-.864-.391-1.615-.73-3.704-.778-2.33-.035-3.874.776-5.505 1.647zm25.256-11.332c-3.008.21-4.101.943-5.253 1.718-1.195.804-2.561 1.718-5.532 1.663-2.981-.056-4.192-.602-5.257-1.089l-.017-.007c-.859-.389-1.612-.73-3.692-.772-2.33-.052-3.874.772-5.501 1.642-1.468.787-2.988 1.598-5.034 1.797-2.553.256-4.879-.339-6.934-.864l-.028-.007c-1.354-.352-2.628-.676-3.748-.7-1.36-.047-2.729.704-4.179 1.5l-.08.043-.014.008c-1.274.69-2.588 1.402-4.074 1.734-.681.158-1.43.221-2.205.221-1.31 0-2.692-.186-3.962-.436a178.148 178.148 0 013.443-2.489c.757.036 1.469 0 2.075-.13 1.085-.249 2.165-.835 3.313-1.458l.011-.006.002-.001c1.757-.954 3.569-1.938 5.729-1.9 1.464.032 2.902.4 4.429.792 1.912.495 3.89.998 5.932.796 1.462-.143 2.606-.752 3.93-1.46 1.805-.966 3.852-2.059 6.958-1.992 2.693.056 3.846.579 4.857 1.037l.008.004.017.008c.92.413 1.72.772 4.076.816 2.053.04 2.757-.436 3.829-1.158l.002-.002c1.31-.886 2.948-1.98 6.899-2.228v2.92zM0 60.543s14.933-8.457 32.205-20.359c-1.762.408-3.543.764-5.34.986a33.92 33.92 0 01-4.345.289c-2.597 0-4.904-.345-6.974-1.045-5.414-1.84-9.031-6.444-9.435-12.024-.393-5.415 2.912-10.848 7.844-12.918 3.697-1.548 9.396-1.75 13.172 1.468 3.178 2.711 4.789 6.673 4.207 10.338-.767 4.804-5.707 8.458-11.01 8.141-2.993-.182-5.57-1.662-6.9-3.962-1.622-2.798-1.301-6.23.82-8.743 1.907-2.248 4.967-2.996 7.793-1.9a5.275 5.275 0 013.154 3.424 4.773 4.773 0 01-.724 4.184c-1.203 1.638-3.74 2.457-5.426 1.749-.748-.313-1.286-.978-1.544-1.714a2.205 2.205 0 01-.21-.925c0-.23.044-.444.107-.65l.004-.03a.25.25 0 01.008-.05h.013a2.241 2.241 0 012.12-1.524c1.125 0 2.05.832 2.213 1.909a1.81 1.81 0 00.463-.416c.475-.653.42-1.31.29-1.75a2.498 2.498 0 00-1.477-1.602c-1.726-.669-3.507-.246-4.65 1.1-1.35 1.599-1.56 3.771-.535 5.537.86 1.488 2.6 2.446 4.646 2.573 3.416.205 7.469-1.948 8.083-5.795.423-2.667-.855-5.715-3.258-7.769-2.75-2.343-7.25-2.284-10.274-1.014-3.804 1.591-6.44 5.954-6.139 10.137.32 4.44 3.21 8.11 7.543 9.578 2.744.926 6.044 1.132 10.077.633 2.703-.335 5.459-1.022 8.133-1.688l.131-.033a175.36 175.36 0 012.347-.578l.323-.08 1.035-.253c2.094-1.5 4.195-3.04 6.29-4.61.019 0 .042 0 .062-.005-.023.004-.043.004-.067.004a14.912 14.912 0 01-3.737-.285c-4.574-.973-7.99-4.547-8.71-9.095a10.986 10.986 0 015.77-11.474c3.38-1.757 8.604-1.967 12.063 1.041 3.254 2.83 4.663 8.585 1.48 12.325-1.475 1.742-3.838 2.898-6.312 3.091-2.232.178-4.302-.44-5.818-1.738-2.149-1.835-2.727-5.014-1.405-7.725 1.23-2.525 3.74-3.82 6.392-3.281 1.543.308 2.925 1.322 3.602 2.636.57 1.1.609 2.331.102 3.467-.7 1.583-2.734 2.7-4.353 2.362a3.249 3.249 0 01-1.12-.43 2.09 2.09 0 01-.95-1.03 1.58 1.58 0 01-.158-.68c0-.013.002-.023.004-.033a.134.134 0 00.004-.027.16.16 0 00-.005-.03l-.003-.029c0-1.152.934-2.082 2.085-2.082.772 0 1.445.427 1.801 1.053a.796.796 0 00.143-.21c.162-.364.15-.693-.028-1.049-.293-.562-.966-1.037-1.674-1.18-2.086-.415-3.072 1.243-3.329 1.766-.62 1.282-.669 3.198.709 4.381.95.811 2.291 1.188 3.78 1.072 1.721-.134 3.411-.945 4.405-2.11 2.066-2.433 1.08-6.442-1.183-8.413-2.487-2.16-6.464-1.955-8.942-.665a8.185 8.185 0 00-4.302 8.557c.538 3.396 3.103 6.067 6.539 6.792 2.553.55 5.378.09 7.725-.476h.005C60.78 18.748 71.454 9.067 77.847.012c0-.054.051.08.152.346.786 2.066 4.591 12.073 10.993 3.564-.233.233 3.167 9.186 13.014 18.868 5.185-.586 10.619-.99 15.922-.555 2.32.19 5.822.479 8.415 1.936 2.758 1.559 4.191 4.63 3.487 7.472-.617 2.49-2.759 3.958-4.975 5.17l-1.426.747c8.779 4.132 19.568 7.374 32.717 8.715a103.754 103.754 0 00-.004 0c.558.02.858.04.858.04s-17.41 1.148-40.544 13.187a46.56 46.56 0 01-1.595-.395 35.326 35.326 0 00-2.652-.578c-.593-.103-1.183-.198-1.777-.214-.791-.012-1.519.139-2.228.345-1.239.36-2.387.95-3.503 1.555-.661.364-1.302.689-1.935.962-.468.206-.926.395-1.389.498-.967.222-2.204.18-3.468.012-2.224-.293-4.543-.98-5.68-1.38v3.066c1.66.523 4.79 1.362 7.592 1.362.772 0 1.524-.064 2.205-.213 1.483-.339 2.794-1.05 4.065-1.738l.023-.012.051-.028c1.09-.595 2.138-1.167 3.166-1.4.017-.005.032-.006.047-.007a.259.259 0 00.045-.006 4.08 4.08 0 01.95-.102c.151.002.311.022.472.041a15.284 15.284 0 011.784.295 154.092 154.092 0 00-13.331 8.386c-2.573-.11-5.695-1.016-7.068-1.507v3.07c.455.14 1.02.305 1.654.472.606.158 1.27.317 1.975.454a166.696 166.696 0 00-17.596 15.14c-.026 0-.115-.154-.262-.407-1.19-2.058-6.184-10.693-12.305 2.777.234 0-11.834-32.007-65.696-29.407zm116.456-1.04a135.766 135.766 0 00-3.823 2.062c.482.11.977.233 1.492.363 2.058.53 4.393 1.129 6.954.876 2.054-.202 3.57-1.01 5.034-1.797 1.631-.871 3.175-1.69 5.505-1.643 2.082.043 2.834.384 3.694.773l.015.007.01.004c1.067.482 2.276 1.029 5.247 1.08 2.967.06 4.337-.855 5.532-1.662 1.152-.772 2.245-1.504 5.253-1.714v-2.92c-3.955.245-5.589 1.34-6.899 2.224l-.002.001c-1.072.723-1.78 1.202-3.829 1.162-2.362-.043-3.164-.405-4.082-.818l-.011-.005c-1.013-.463-2.165-.985-4.865-1.045-3.091-.07-5.141 1.021-6.942 1.981l-.02.01c-1.32.712-2.46 1.318-3.93 1.464-1.479.147-2.92-.079-4.333-.404zM90.33 53.078c17.062-5.779 39.856-6.915 53.882-6.994h-.205c-9.166-1.804-17.209-4.982-21.334-6.918a84.31 84.31 0 01-3.15-1.567c-5.517-2.882-12.388-7.318-17.229-12.017.183-.023-1.203.123-2.125.234-14.909 1.824-29.917 5.233-44.015 8.561-3.744.89-7.485 1.797-11.217 2.703l-2.613.636c-1.514.368-3.026.736-4.539 1.098l-.427.105-.428.105c-6.787 4.595-20.347 13.56-27.428 18.143l-.021.007a.136.136 0 01-.022.008C42.828 45.99 81.152 39.674 81.583 39.674c-9.162 6.051-4.504 11.382-4.504 11.382 3.004 3.028 5.822 3.44 8.506 3.088 1.135-.15 2.244-.434 3.333-.714a59.31 59.31 0 011.412-.351zm30.42-16.84l-.407-.214 3.19-1.679c1.642-.894 3.23-1.935 3.585-3.376.404-1.626-.483-3.423-2.149-4.361-2.051-1.159-5.184-1.416-7.263-1.587h-.008c-4.163-.34-8.343-.167-12.989.289 4.188 3.716 9.345 7.436 15.634 10.718l.407.21zM99.906 23.035l.082-.008c-3.89-3.745-9.436-11.106-11.63-15.792-1.4 1.219-2.825 1.836-4.27 1.836-2.564 0-4.796-1.864-6.645-5.544-4.947 6.43-14.612 15.57-23.858 23.034.471-.127.942-.253 1.41-.376 3.467-.914 13.943-3.566 13.943-3.566l-.423 3.016s-8.827 2.205-12.805 3.253l-.057.015c-1.56.415-3.12.83-4.684 1.232-.808.214-1.698.42-2.624.594a479.67 479.67 0 01-5.256 3.922l1.187-.285c3.74-.91 7.485-1.82 11.236-2.707 14.17-3.348 29.265-6.772 44.313-8.616l.081-.008zM50.27 27.432l1.718-.452.767-.201-1.117.293-1.372.36-.092.023c-.083.02-.169.04-.253.064a9.296 9.296 0 01.349-.087z" fill="#0247AD"/></svg>